<?xml version="1.0" encoding="utf-8"?>

<svg version="1.0" xmlns="http://www.w3.org/2000/svg" width="678px" height="482px" viewBox="0 0 678 482" preserveAspectRatio="xMidYMid meet">
 
 <g fill="#868efc">
  <path d="M343.46 425.53 c0 -1.12 1.78 -1.78 4.80 -1.78 2.96 0 0.95 1.84 -2.73 2.51 -1.84 0.33 -2.06 0.28 -2.06 -0.72z"/>
  <path d="M263.73 422.80 c-1.67 -0.61 -3.35 -3.12 -3.35 -5.02 0 -1.73 0.11 -1.84 1.95 -1.84 1.06 0 1.95 0.22 1.95 0.56 0 0.84 2.34 2.79 3.46 2.79 0.78 0 1 0.45 1 1.95 0 1.90 -0.06 1.95 -2.06 1.90 -1.17 0 -2.51 -0.17 -2.96 -0.33z"/>
  <path d="M293.84 421.24 l0 -1.95 4.46 0 4.46 0 0 1.95 0 1.95 -4.46 0 -4.46 0 0 -1.95z"/>
  <path d="M310.01 421.30 l0 -1.95 18.07 -0.17 c9.92 -0.11 18.29 -0.39 18.57 -0.61 0.22 -0.28 0.56 -11.21 0.72 -24.25 0.33 -26.21 0.28 -25.93 3.90 -29.55 2.34 -2.40 4.29 -3.35 7.92 -3.96 2.34 -0.39 2.68 -0.56 1.73 -0.89 -0.72 -0.22 -1.78 -1.28 -2.45 -2.29 -0.61 -1.06 -1.62 -2.17 -2.23 -2.45 -0.56 -0.33 -1.06 -0.95 -1.06 -1.39 0 -0.45 -0.33 -0.84 -0.72 -0.84 -0.39 0 -1.06 -0.50 -1.51 -1.17 -1.56 -2.17 -2.62 -3.29 -3.29 -3.29 -0.33 0 -0.61 -0.50 -0.61 -1.12 0 -0.72 -0.39 -1.12 -1.12 -1.12 -0.72 0 -1.12 -0.39 -1.12 -1.12 0 -0.67 -0.39 -1.12 -0.89 -1.12 -0.95 0 -2.45 -1.28 -2.45 -2.06 0 -0.50 -2.01 -2.40 -2.56 -2.40 -0.61 0 -2.96 -2.68 -3.85 -4.52 -1 -1.90 -2.17 -3.29 -2.79 -3.29 -0.84 0 -1.95 -1.73 -1.95 -3.01 0 -1.23 -0.22 -1.45 -1.67 -1.45 -1.39 0 -1.67 -0.22 -1.67 -1.39 0 -0.78 -0.22 -1.39 -0.56 -1.39 -0.28 0 -0.56 -0.39 -0.56 -0.84 0 -0.45 -0.50 -0.84 -1.12 -0.84 -1.12 0 -2.23 -2.73 -2.23 -5.69 0 -0.84 -0.22 -1.67 -0.56 -1.84 -0.28 -0.17 -0.56 -0.84 -0.56 -1.45 0 -0.78 -0.39 -1.06 -1.67 -1.06 -1.12 0 -1.67 -0.28 -1.67 -0.84 0 -0.50 -0.61 -1.12 -1.39 -1.39 -1.34 -0.50 -3.07 -3.12 -3.07 -4.74 0 -0.45 -0.50 -0.84 -1.12 -0.84 -0.61 0 -1.12 -0.22 -1.12 -0.56 0 -0.28 -0.33 -0.56 -0.78 -0.56 -0.45 0 -1 -0.50 -1.17 -1.12 -0.17 -0.61 -0.61 -1.12 -0.89 -1.12 -0.28 0 -0.50 -0.50 -0.50 -1.12 0 -1.34 -2.34 -3.90 -3.51 -3.90 -0.45 0 -1 -0.61 -1.17 -1.39 -0.28 -1.17 -0.67 -1.39 -2.29 -1.39 -1.06 0 -1.95 -0.22 -1.95 -0.56 0 -0.28 -0.50 -0.56 -1.12 -0.56 -0.61 0 -1.12 -0.22 -1.12 -0.50 0 -1 -1.78 -2.29 -3.12 -2.29 -1.06 0 -1.34 -0.28 -1.34 -1.39 0 -1 -0.28 -1.39 -1.12 -1.39 -0.61 0 -1.12 -0.22 -1.12 -0.50 0 -0.28 -0.72 -0.78 -1.67 -1.17 -1.06 -0.45 -1.67 -1.12 -1.67 -1.78 0 -1.28 -1.28 -2.68 -2.45 -2.68 -0.67 0 -0.89 -0.56 -0.89 -1.90 l0 -1.95 3.01 1.34 c5.80 2.56 9.65 3.29 17.34 3.29 5.85 0 8.08 -0.22 11.65 -1.23 5.63 -1.62 11.26 -4.46 15.50 -7.81 3.29 -2.56 3.35 -2.56 1.90 -3.07 -0.78 -0.28 -1.45 -0.78 -1.45 -1.12 0 -0.50 8.87 -0.67 35.80 -0.56 19.74 0.06 54.36 0.11 77 0.11 l41.09 0.06 0 6.47 c0 3.51 -0.28 6.91 -0.56 7.47 -1.28 2.40 -2.12 2.51 -25.37 2.79 l-22.30 0.28 -2.62 1.56 c-4.85 2.84 -6.86 8.36 -4.63 12.66 0.56 1.06 5.30 6.30 10.54 11.60 9.48 9.65 9.53 9.70 9.81 7.92 l0.28 -1.73 1.90 1.95 1.95 2.01 -1.90 0 -1.95 0 4.24 4.35 c5.85 5.91 6.08 6.36 6.08 10.93 l0 3.85 -5.19 5.35 c-47.34 48.73 -45.39 46.61 -43.38 46.89 l1.78 0.28 -1.95 1.90 -2.01 1.95 0 -1.84 0 -1.90 -2.79 2.62 c-2.68 2.51 -2.84 2.56 -6.36 2.56 -1.95 0 -3.96 -0.17 -4.40 -0.33 -0.50 -0.17 -7.19 -6.86 -14.94 -14.89 -7.75 -8.03 -14.83 -15.11 -15.78 -15.78 -3.23 -2.17 -5.69 -2.68 -8.36 -1.67 -2.96 1.12 -5.74 3.79 -7.08 6.75 -0.95 2.06 -1.06 4.13 -1.06 24.37 0 12.15 -0.17 22.47 -0.33 22.97 -0.17 0.50 -0.84 0.89 -1.39 0.89 -0.67 0 -1.06 0.39 -1.06 1.06 0 0.56 -0.39 1.23 -0.89 1.39 -0.50 0.17 -9.14 0.33 -19.24 0.33 l-18.34 0 0 -1.90z"/>
  <path d="M258.49 421.58 c-0.17 -0.22 -0.56 -1.12 -0.84 -1.95 -0.56 -1.34 -0.45 -1.45 0.78 -1.45 1.23 0 1.39 0.22 1.39 1.95 0 1.84 -0.67 2.56 -1.34 1.45z"/>
  <path d="M204.24 400.61 c-2.40 -1 -2.34 -1.95 0.11 -1.95 1.73 0 1.95 0.17 1.95 1.39 0 0.78 -0.06 1.39 -0.11 1.39 -0.11 -0.06 -1 -0.39 -1.95 -0.84z"/>
  <path d="M403.68 400.33 c0 -0.89 0.39 -1.12 1.95 -1.12 2.17 0 2.56 0.78 0.89 1.67 -1.73 0.89 -2.84 0.67 -2.84 -0.56z"/>
  <path d="M209.09 396.21 c0 -2.06 0.67 -2.56 3.40 -2.56 1.45 0 1.62 -0.17 1.62 -1.78 0 -2.56 3.96 -6.58 6.52 -6.58 1.73 0 1.84 0.11 1.84 1.90 0 1.06 -0.33 2.12 -0.67 2.40 -0.50 0.28 -0.17 0.50 0.95 0.72 l1.67 0.33 -3.18 3.29 -3.23 3.35 0 -1.78 c0 -1.73 -0.11 -1.84 -1.95 -1.84 -1.84 0 -1.95 0.11 -1.95 1.90 0 2.06 -0.67 2.56 -3.40 2.56 -1.45 0 -1.62 -0.17 -1.62 -1.90z m11.71 -4.24 c0 -0.61 -0.11 -1.12 -0.17 -1.12 -0.11 0 -0.67 0.50 -1.23 1.12 -1 1.06 -0.95 1.12 0.17 1.12 0.84 0 1.23 -0.33 1.23 -1.12z"/>
  <path d="M200.56 394.31 c-2.01 -2.06 -2.62 -3.07 -2.62 -4.46 0 -1.67 0.17 -1.78 1.84 -1.78 2.56 0 7.08 4.52 7.08 7.14 0 1.67 -0.17 1.78 -1.84 1.78 -1.45 0 -2.40 -0.56 -4.46 -2.68z"/>
  <path d="M186.90 380.09 c-2.29 -2.29 -2.90 -3.29 -2.90 -4.74 0 -1.67 0.17 -1.78 1.84 -1.78 2.62 0 7.64 5.07 7.64 7.69 0 1.67 -0.17 1.78 -1.84 1.78 -1.45 0 -2.40 -0.56 -4.74 -2.96z"/>
  <path d="M227.49 377.86 c0 -2.62 5.07 -7.64 7.69 -7.64 1.67 0 1.78 0.17 1.78 1.84 0 2.62 -5.07 7.64 -7.69 7.64 -1.67 0 -1.78 -0.17 -1.78 -1.84z"/>
  <path d="M259.83 373.74 c0 -0.56 -0.50 -1.84 -1.12 -2.84 -0.61 -1 -1.12 -2.29 -1.12 -2.90 0 -0.72 -0.39 -1.12 -1.12 -1.12 -0.84 0 -1.12 0.39 -1.12 1.62 l0 1.56 -2.51 -1.17 c-2.96 -1.39 -3.23 -2.56 -0.67 -2.62 l1.78 -0.06 -1.51 -0.61 c-1.28 -0.50 -1.56 -0.95 -1.56 -2.45 0 -1.73 0.11 -1.84 1.95 -1.84 2.90 0 5.85 1.62 5.85 3.18 0 1 0.33 1.28 1.39 1.28 1.17 0 1.67 0.50 2.51 2.40 0.61 1.28 1.12 3.29 1.12 4.46 0 2.01 -0.06 2.06 -1.95 2.06 -1.51 0 -1.95 -0.22 -1.95 -0.95z"/>
  <path d="M172.29 368.83 l-1.90 -1.95 2.06 0 c2.01 0 2.06 0.06 2.06 1.95 0 1.06 -0.06 1.95 -0.17 1.95 -0.11 0 -1 -0.89 -2.06 -1.95z"/>
  <path d="M243.10 369.39 c0 -1.23 -0.22 -1.39 -1.95 -1.39 -1.90 0 -1.95 -0.11 -1.95 -2.01 0 -1.51 0.28 -2.06 1.12 -2.29 0.61 -0.17 1.12 -0.50 1.12 -0.72 0 -0.61 3.18 -1.67 5.07 -1.67 1.45 0 1.62 0.17 1.62 1.84 0 1.67 -0.22 1.95 -2.23 2.62 -2.62 0.89 -2.90 1.67 -0.56 1.67 1.90 0 2.12 0.39 0.72 1.51 -2.45 1.90 -2.96 1.95 -2.96 0.45z"/>
  <path d="M169.89 362.53 c-2.56 -2.56 -3.18 -3.57 -3.18 -5.02 0 -1.62 0.17 -1.78 1.78 -1.78 1.45 0 2.45 0.61 5.02 3.18 2.62 2.62 3.23 3.51 3.23 5.02 0 1.73 -0.11 1.84 -1.84 1.84 -1.51 0 -2.40 -0.61 -5.02 -3.23z"/>
  <path d="M153.05 349.09 l-2.17 -2.29 2.06 0 c2.29 0 2.84 0.67 2.51 3.07 l-0.17 1.45 -2.23 -2.23z"/>
  <path d="M151.77 343.85 c-1 -1 -1.78 -2.01 -1.78 -2.29 0 -0.22 -0.39 -0.78 -0.84 -1.23 -0.95 -1 -1.23 -7.47 -0.28 -7.47 0.33 0 0.56 -0.45 0.56 -1 0 -1.51 1.12 -2.34 3.18 -2.34 1.73 0 1.84 0.11 1.84 1.90 0 1.34 -0.39 2.17 -1.17 2.79 -1.67 1.17 -1.06 3.18 1.73 5.69 1.78 1.62 2.23 2.40 2.23 3.90 0 1.78 -0.11 1.90 -1.84 1.90 -1.34 0 -2.34 -0.50 -3.62 -1.84z"/>
  <path d="M166.71 314.86 c0 -1.45 0.56 -2.34 2.56 -4.29 l2.51 -2.51 -1.73 -0.28 -1.73 -0.28 3.68 -3.62 3.62 -3.57 0 1.67 c0 1.56 0.17 1.73 1.39 1.45 1 -0.17 1.39 -0.61 1.39 -1.56 0 -0.72 0.22 -1.34 0.45 -1.34 0.28 0 0.78 -1.06 1.17 -2.29 0.84 -2.84 0.33 -8.87 -0.78 -8.87 -0.39 0 -1.34 -0.72 -2.06 -1.62 -0.78 -0.89 -2.29 -1.90 -3.40 -2.34 -1.78 -0.61 -2.06 -0.95 -2.06 -2.56 0 -1.67 0.17 -1.84 1.62 -1.84 1.95 0 5.07 1.06 5.07 1.73 0 0.28 0.33 0.50 0.72 0.50 1.23 0 3.18 2.51 3.18 4.07 0 0.89 0.28 1.51 0.78 1.51 1 0 1.45 1.73 1.45 6.08 0 3.68 -0.95 7.86 -1.78 7.86 -0.22 0 -0.45 0.39 -0.45 0.84 0 0.45 -0.50 0.84 -1.12 0.84 -0.78 0 -1.12 0.39 -1.12 1.23 0 0.84 -1.67 2.96 -4.85 6.13 -4.18 4.18 -5.13 4.91 -6.69 4.91 -1.73 0 -1.84 -0.11 -1.84 -1.84z"/>
  <path d="M177.42 296.29 c0.33 -1.34 0.33 -2.51 -0.06 -3.62 -0.50 -1.51 -0.45 -1.62 0.84 -1.62 1.28 0 1.34 0.17 1.34 3.62 0 3.46 -0.06 3.62 -1.34 3.62 -1.28 0 -1.34 -0.11 -0.78 -2.01z"/>
  <path d="M128.69 283.97 c-0.56 -0.11 -1 -0.72 -1 -1.34 0 -0.67 -0.39 -1.06 -1.06 -1.06 -1.23 0 -1.73 -1.45 -1.73 -4.85 0 -2.34 0.06 -2.40 1.90 -2.40 1.84 0 1.90 0.06 2.23 2.73 0.33 2.45 0.50 2.73 2.06 3.07 1 0.17 10.37 0.33 20.91 0.33 l19.18 0 0 1.95 0 1.95 -20.74 -0.06 c-11.43 -0.06 -21.24 -0.17 -21.75 -0.33z"/>
  <path d="M275.44 273.76 c0 -0.28 -0.39 -0.56 -0.84 -0.56 -0.45 0 -0.84 -0.39 -0.84 -0.84 0 -0.72 -8.59 -0.84 -74.16 -0.84 l-74.16 0 0 -1.95 0 -1.95 76.11 0 c64.68 0 76.11 0.11 76.11 0.78 0 0.45 -0.39 0.95 -0.95 1.12 -0.78 0.33 -0.67 0.67 0.84 2.17 1 1 1.78 2.01 1.78 2.23 0 0.22 -0.89 0.39 -1.95 0.39 -1.06 0 -1.95 -0.22 -1.95 -0.56z"/>
  <path d="M489.10 270.03 c0.17 -2.12 0.17 -2.12 2.84 -2.29 2.34 -0.17 2.62 -0.06 2.62 0.95 0 0.95 -0.33 1.17 -1.67 1.17 -1.28 0 -1.67 0.22 -1.67 1.12 0 0.78 -0.39 1.12 -1.17 1.12 -0.95 0 -1.12 -0.28 -0.95 -2.06z"/>
  <path d="M121.55 270.70 c0 -0.50 -0.50 -0.84 -1.39 -0.84 -1 0 -1.39 -0.28 -1.39 -1.12 0 -0.89 0.39 -1.12 1.95 -1.12 1.84 0 1.95 0.11 1.95 1.95 0 1.06 -0.22 1.95 -0.56 1.95 -0.28 0 -0.56 -0.39 -0.56 -0.84z"/>
  <path d="M94.06 269.47 c-0.89 -0.84 -0.33 -1.84 1 -1.84 1 0 1.39 0.28 1.39 1.12 0 1.12 -1.56 1.56 -2.40 0.72z"/>
  <path d="M98.69 268.75 c0 -0.89 0.39 -1.12 1.95 -1.12 1.56 0 1.95 0.22 1.95 1.12 0 0.89 -0.39 1.12 -1.95 1.12 -1.56 0 -1.95 -0.22 -1.95 -1.12z"/>
  <path d="M104.82 268.75 c0 -1 0.39 -1.12 3.90 -1.12 3.51 0 3.90 0.11 3.90 1.12 0 1 -0.39 1.12 -3.90 1.12 -3.51 0 -3.90 -0.11 -3.90 -1.12z"/>
  <path d="M498.46 268.75 c0 -0.89 0.39 -1.12 1.95 -1.12 1.56 0 1.95 0.22 1.95 1.12 0 0.89 -0.39 1.12 -1.95 1.12 -1.56 0 -1.95 -0.22 -1.95 -1.12z"/>
  <path d="M506.83 268.75 c0 -1.06 0.33 -1.12 8.14 -1.12 7.42 0 8.08 0.06 7.92 1 -0.17 0.84 -1.06 0.95 -8.14 1.12 -7.64 0.11 -7.92 0.11 -7.92 -1z"/>
  <path d="M93.78 265.57 c0.11 -0.72 0.78 -1.06 2.29 -1.17 1.78 -0.17 2.06 0 2.06 0.95 0 1 -0.33 1.17 -2.29 1.17 -1.84 0 -2.23 -0.17 -2.06 -0.95z"/>
  <path d="M106.50 265.40 c0 -0.95 0.39 -1.12 2.23 -1.12 1.84 0 2.23 0.17 2.23 1.12 0 0.95 -0.39 1.12 -2.23 1.12 -1.84 0 -2.23 -0.17 -2.23 -1.12z"/>
  <path d="M117.65 265.40 c0 -0.89 0.39 -1.12 1.95 -1.12 1.34 0 1.95 -0.28 1.95 -0.84 0 -0.45 0.28 -0.84 0.56 -0.84 0.33 0 0.56 0.89 0.56 1.95 0 1.95 0 1.95 -2.51 1.95 -2.12 0 -2.51 -0.17 -2.51 -1.12z"/>
  <path d="M125.29 266.13 c-0.22 -0.17 -0.39 -1.12 -0.39 -2.06 l0 -1.73 72.32 0.11 c64.90 0.11 72.37 0.17 72.99 0.95 0.33 0.50 1.28 0.89 2.12 0.89 1.06 0 1.45 0.28 1.45 1.12 0 1.12 -0.39 1.12 -74.04 1.12 -40.76 0 -74.27 -0.17 -74.44 -0.39z"/>
  <path d="M330.08 265.40 c0 -0.89 0.39 -1.12 1.95 -1.12 1.56 0 1.95 0.22 1.95 1.12 0 0.89 -0.39 1.12 -1.95 1.12 -1.56 0 -1.95 -0.22 -1.95 -1.12z"/>
  <path d="M336.77 265.40 c0 -0.89 0.39 -1.12 1.95 -1.12 1.78 0 2.17 -0.28 3.96 -3.07 1.90 -3.01 4.13 -7.69 4.13 -8.70 0 -0.28 -0.61 -0.50 -1.39 -0.50 -1 0 -1.39 -0.28 -1.39 -1.12 0 -0.89 0.39 -1.12 1.84 -1.12 l1.78 0 -0.17 -6.08 c-0.22 -6.02 -0.22 -6.08 1.06 -6.30 l1.34 -0.17 0.17 -20.07 c0.06 -11.04 0 -20.63 -0.17 -21.35 -0.17 -0.67 -0.78 -1.73 -1.39 -2.34 -1.06 -1.06 -1.95 -1.12 -24.76 -1.12 -23.19 0 -23.70 0 -28.94 1.34 -2.96 0.78 -7.36 2.40 -9.76 3.62 -4.40 2.34 -11.71 8.14 -11.76 9.42 -0.06 0.78 -1.51 0.89 -2.01 0.11 -0.17 -0.28 -1.51 -0.56 -2.90 -0.56 -2.01 0 -2.56 0.22 -2.79 1.12 -0.39 1.51 -2.62 1.45 -6.41 -0.06 -5.30 -2.12 -11.04 -0.61 -15.11 3.90 -6.13 6.75 -2.29 15.44 8.25 18.68 1.56 0.45 4.85 1.39 7.42 2.06 4.46 1.17 4.57 1.23 4.57 2.90 0 1.34 -0.17 1.56 -0.67 1.06 -1.23 -1.23 -1.56 -0.72 -1.56 2.40 0 3.18 0.67 3.90 2.01 2.12 0.67 -0.89 0.72 -0.78 0.78 1 0 2.45 -0.61 2.73 -6.69 2.73 -4.74 0 -8.03 -1.17 -9.87 -3.57 -1 -1.23 -1.62 -1.45 -4.01 -1.45 l-2.84 0 0 7.25 0 7.25 -3.90 0 -3.90 0 0 -1.95 c0 -1.84 0.11 -1.95 1.95 -1.95 1.34 0 1.95 -0.28 1.95 -0.84 0 -0.56 -0.61 -0.84 -1.95 -0.84 l-1.95 0 0 -3.90 0 -3.90 1.90 0 c1.84 0 1.90 -0.06 2.12 -2.62 0.28 -4.07 -0.06 -5.63 -1.23 -6.02 -0.56 -0.17 -1.23 -0.84 -1.39 -1.45 -0.28 -0.84 -0.89 -1.06 -3.18 -1.06 l-2.84 0 0.39 -4.29 c0.17 -2.34 0.33 -6.08 0.33 -8.36 l0 -4.07 1.95 0 1.95 0 0 -3.07 0 -3.07 -7.25 0 -7.25 0 0 3.07 c0 2.90 0.11 3.07 1.34 3.07 3.23 0 3.12 -0.67 3.12 15.89 l0 15.28 -2.06 0.17 -2.12 0.17 0.17 4.91 0.11 4.85 -1.90 0 c-1.06 0 -2.06 -0.33 -2.17 -0.67 -0.22 -0.56 -0.33 -0.56 -0.33 0 -0.06 0.45 -1.06 0.67 -3.12 0.67 l-3.07 0 0 -1.95 0 -1.95 3.07 0 3.07 0 0 -2.79 0 -2.79 -3.46 0 c-1.95 0 -3.74 -0.22 -4.07 -0.45 -0.28 -0.22 -1.62 -2.56 -2.90 -5.30 -3.01 -6.08 -3.07 -7.86 -0.45 -11.26 1.78 -2.34 3.07 -5.52 3.07 -7.58 0 -1.95 -1.84 -6.08 -3.74 -8.31 -2.12 -2.45 -5.58 -4.40 -7.81 -4.46 -1.12 0 -1.28 -0.28 -1.28 -1.95 l0 -1.95 2.68 0 c1.45 0.06 3.62 0.39 4.85 0.84 1.23 0.45 2.29 0.84 2.34 0.84 0.06 0 0.50 -0.39 0.95 -0.89 1.12 -1.12 1.12 -2.45 0 -2.45 -1.06 0 -2.45 -1.34 -2.45 -2.29 0 -0.45 -0.50 -1.23 -1.12 -1.90 -0.67 -0.61 -3.96 -4.01 -7.42 -7.53 -5.52 -5.69 -8.59 -8.36 -9.59 -8.36 -0.17 0 -0.28 0.67 -0.28 1.56 -0.06 3.96 -4.68 9.53 -8.87 10.71 -1.17 0.33 -10.65 0.56 -22.30 0.56 -14.16 0 -20.85 0.22 -22.14 0.67 -1.90 0.67 -2.45 1.73 -2.45 4.80 0 1.67 -0.11 1.78 -1.95 1.78 l-1.95 0 0 -2.90 c0 -3.74 0.50 -5.46 1.45 -5.46 0.45 0 0.78 -0.33 0.78 -0.78 0 -1.73 3.40 -2.01 23.92 -2.01 20.07 0 20.52 0 22.92 -1.23 1.39 -0.72 3.29 -2.34 4.29 -3.68 4.24 -5.63 3.07 -8.48 -8.48 -20.57 l-8.36 -8.75 -0.28 1.84 -0.28 1.78 -1.90 -1.95 -1.95 -2.01 1.84 0 1.84 0 -5.46 -5.69 c-2.96 -3.18 -5.85 -6.47 -6.47 -7.42 -1.34 -2.23 -1.34 -6.69 0.06 -8.92 0.56 -0.89 10.26 -11.21 21.58 -22.86 11.37 -11.65 23.36 -24.03 26.71 -27.49 3.35 -3.51 6.80 -6.69 7.64 -7.14 0.84 -0.45 3.07 -0.78 5.02 -0.78 l3.51 0 6.86 7.08 c3.79 3.96 10.54 10.98 15 15.61 9.09 9.53 11.43 11.10 15.56 10.59 3.12 -0.33 6.08 -2.56 8.03 -6.02 l1.39 -2.45 0.28 -22.97 0.28 -23.03 1.56 -1.51 1.51 -1.56 39.20 -0.17 c21.52 -0.11 40.48 0 42.15 0.17 2.17 0.28 3.35 0.78 4.29 1.78 l1.34 1.39 0.11 62.84 0.17 62.78 1.23 2.29 c1.39 2.62 4.07 5.07 6.69 6.19 1.51 0.61 12.82 0.72 62.34 0.72 65.18 0 63.12 -0.11 65.18 2.84 0.72 1.06 0.89 2.84 0.89 9.81 l0 8.53 -1.95 0 c-1.78 0 -1.95 -0.17 -1.95 -1.62 0 -1.56 0 -1.56 -4.40 -1.95 -2.40 -0.17 -4.80 -0.17 -5.30 0 -0.50 0.17 -1.23 1.51 -1.67 2.96 -0.39 1.39 -2.79 9.48 -5.35 17.90 -2.51 8.42 -4.63 15.67 -4.74 16.06 -0.17 0.33 -1.12 0.67 -2.23 0.67 l-2.01 0 0.17 2.96 0.17 2.90 7.14 0.17 7.14 0.17 -0.17 -3.23 c-0.17 -3.23 -0.17 -3.23 -2.06 -3.40 l-1.90 -0.17 0.33 -3.29 c0.17 -1.78 0.45 -3.51 0.67 -3.85 0.22 -0.39 3.46 -0.61 8.92 -0.61 l8.64 0 0.39 1.56 c0.22 0.84 0.39 2.62 0.39 4.01 0.06 2.45 0 2.51 -1.73 2.68 -1.78 0.17 -1.84 0.22 -1.84 2.90 0 2.56 0.11 2.73 1.56 2.90 l1.51 0.17 0 8.08 0 8.08 -75.10 0.17 c-74.88 0.11 -75.16 0.11 -75.16 -1z m41.82 -16.23 c4.29 -1.28 8.36 -5.85 9.26 -10.48 l0.39 -1.73 -2.84 0 -2.79 0 -0.39 2.29 c-0.22 1.23 -0.89 2.68 -1.45 3.23 -2.29 2.12 -16 2.12 -18.29 0 -1.45 -1.34 -1.95 -7.03 -1.62 -18.46 0.33 -10.71 0.33 -10.82 6.36 -11.37 4.85 -0.45 12.04 0.17 13.38 1.12 0.56 0.45 1.12 1.78 1.28 3.18 l0.33 2.45 2.96 0.17 c1.56 0.11 2.90 -0.06 2.90 -0.33 0 -0.22 -0.39 -1.78 -0.89 -3.40 -1.84 -6.19 -7.30 -9.53 -15.56 -9.53 -7.58 0 -12.60 2.68 -15.11 8.03 -1.23 2.68 -1.34 3.46 -1.34 13.44 0 5.85 0.22 11.43 0.56 12.49 1.34 4.63 5.58 8.48 10.65 9.53 3.01 0.61 9.09 0.33 12.21 -0.61z m40.14 -1.84 l0 -3.07 -2.06 -0.17 -2.12 -0.17 -0.17 -15.78 -0.11 -15.78 3.74 0.17 3.79 0.17 0.17 2.40 0.17 2.40 2.90 -0.17 2.90 -0.17 0 -5.30 0 -5.30 -16.11 -0.17 c-9.42 -0.06 -16.39 0.11 -16.67 0.39 -0.28 0.28 -0.33 2.62 -0.11 5.63 l0.39 5.07 2.62 -0.17 2.56 -0.17 0.17 -2.34 0.17 -2.40 3.01 0 c5.13 0 4.74 -1.28 4.74 15.89 l0 15.28 -2.06 0.17 -2.12 0.17 -0.17 3.23 -0.17 3.18 7.30 0 7.25 0 0 -3.01z m-199.05 -18.79 c0 -8.87 -0.17 -11.76 -0.67 -11.93 -0.39 -0.11 -2.29 -0.33 -4.18 -0.45 l-3.51 -0.28 0 4.01 c0 4.46 -1 8.14 -2.96 10.59 l-1.28 1.62 1.95 4.07 c1.95 3.90 2.06 4.07 4.24 4.24 1.23 0.11 3.18 0.06 4.35 -0.06 l2.06 -0.17 0 -11.65z"/>
  <path d="M489.38 266.13 c-0.22 -0.17 -0.39 -1.34 -0.39 -2.51 0 -1.73 0.17 -2.12 1.12 -2.12 0.84 0 1.12 0.39 1.12 1.39 0 1.28 0.22 1.39 2.23 1.39 1.84 0 2.23 0.17 2.23 1.12 0 1 -0.39 1.12 -2.96 1.12 -1.67 0 -3.18 -0.17 -3.35 -0.39z"/>
  <path d="M263.34 259.49 c-1 -1 -1.84 -2.06 -1.84 -2.40 0 -0.33 -0.39 -0.61 -0.84 -0.61 -0.45 0 -0.84 -0.45 -0.84 -1.06 0 -0.84 -0.61 -1.06 -4.01 -1.39 -2.23 -0.22 -5.24 -0.39 -6.69 -0.33 -2.45 0.06 -2.68 -0.06 -2.68 -1.28 0 -0.78 0.17 -2.17 0.33 -3.12 0.28 -1.45 0.61 -1.73 1.90 -1.73 0.84 0 2.73 0.50 4.18 1.17 2.79 1.23 6.58 1.51 11.04 0.78 2.23 -0.33 2.62 -0.28 2.62 0.50 0 0.50 -0.33 0.89 -0.78 0.89 -1.67 0 -1.51 1.28 0.72 5.91 l2.23 4.68 -1.78 -0.06 c-1.23 -0.06 -2.34 -0.67 -3.57 -1.95z"/>
  <path d="M488.99 252.30 c0 -1.84 0.11 -1.95 1.95 -1.95 1.34 0 1.95 0.28 1.95 0.84 0 0.45 -0.39 0.84 -0.84 0.84 -0.45 0 -0.84 0.50 -0.84 1.12 0 0.72 -0.39 1.12 -1.12 1.12 -0.89 0 -1.12 -0.39 -1.12 -1.95z"/>
  <path d="M135.49 251.74 c0 -1.84 0.11 -1.95 1.95 -1.95 1.84 0 1.95 0.11 1.95 1.95 0 1.84 -0.11 1.95 -1.95 1.95 -1.84 0 -1.95 -0.11 -1.95 -1.95z"/>
  <path d="M175.63 251.74 c0 -1.84 0.11 -1.95 1.95 -1.95 1.84 0 1.95 0.11 1.95 1.95 0 1.84 -0.11 1.95 -1.95 1.95 -1.84 0 -1.95 -0.11 -1.95 -1.95z"/>
  <path d="M180.65 251.74 l0 -1.95 3.90 0 3.90 0 0 1.95 0 1.95 -3.90 0 -3.90 0 0 -1.95z"/>
  <path d="M189.01 251.74 c0 -1.84 0.11 -1.95 1.95 -1.95 1.84 0 1.95 0.11 1.95 1.95 0 1.84 -0.11 1.95 -1.95 1.95 -1.84 0 -1.95 -0.11 -1.95 -1.95z"/>
  <path d="M193.48 251.74 c0 -1.84 0.11 -1.95 1.95 -1.95 1.84 0 1.95 0.11 1.95 1.95 0 1.84 -0.11 1.95 -1.95 1.95 -1.84 0 -1.95 -0.11 -1.95 -1.95z"/>
  <path d="M167.27 244.49 l0 -8.64 1.95 0 c1.95 0 1.95 0.06 1.95 2.40 l0 2.40 2.34 -0.22 2.29 -0.22 -0.33 2.96 c-0.22 1.67 -0.39 4.57 -0.39 6.52 l0 3.46 -3.90 0 -3.90 0 0 -8.64z"/>
  <path d="M105.77 251.63 c-0.84 -0.84 -0.39 -2.40 0.72 -2.40 0.84 0 1.12 0.39 1.12 1.39 0 1.34 -1 1.90 -1.84 1z"/>
  <path d="M115.42 250.07 c0 -1.67 0.17 -1.95 1.34 -1.95 1.28 0 1.34 0.11 0.72 1.95 -0.33 1.06 -0.89 1.95 -1.34 1.95 -0.45 0 -0.72 -0.72 -0.72 -1.95z"/>
  <path d="M288.82 250.90 c0 -1 0.33 -1.12 3.68 -1.12 3.18 0 3.62 0.11 3.46 1 -0.17 0.78 -0.89 1 -3.68 1.12 -3.18 0.17 -3.46 0.06 -3.46 -1z"/>
  <path d="M517.98 250.96 c0 -1 0.33 -1.17 2.56 -1.17 2.12 0 2.51 0.17 2.34 1 -0.11 0.67 -0.84 1 -2.56 1.12 -2.06 0.17 -2.34 0.06 -2.34 -0.95z"/>
  <path d="M135.49 242.26 c0 -1.90 0.06 -1.95 2.23 -1.95 2.17 0 2.23 0.06 2.23 1.95 0 1.90 -0.06 1.95 -2.23 1.95 -2.17 0 -2.23 -0.06 -2.23 -1.95z"/>
  <path d="M149.99 242.26 l0 -1.95 5.85 0 5.85 0 0 1.95 0 1.95 -5.85 0 -5.85 0 0 -1.95z"/>
  <path d="M187.23 243.82 c-2.01 -0.22 -2.12 -0.33 -2.12 -2.23 l0 -2.01 2.96 0.39 c1.56 0.17 3.35 0.33 3.90 0.33 0.72 0 0.95 0.45 0.95 1.95 0 2.12 0 2.12 -5.69 1.56z"/>
  <path d="M193.48 242.32 c0 -1.06 0.28 -2.01 0.61 -2.12 0.45 -0.17 0.39 -0.78 -0.28 -1.95 -0.50 -1 -0.89 -2.56 -0.89 -3.51 0 -1.51 0.17 -1.67 1.84 -1.67 1.73 0 1.95 0.22 3.68 3.79 1.17 2.40 1.78 4.40 1.62 5.41 -0.17 1.62 -0.28 1.67 -3.35 1.84 l-3.23 0.17 0 -1.95z"/>
  <path d="M277.67 243.10 c0 -0.72 0.39 -1.12 1.12 -1.12 0.72 0 1.12 0.39 1.12 1.12 0 0.72 -0.39 1.12 -1.12 1.12 -0.72 0 -1.12 -0.39 -1.12 -1.12z"/>
  <path d="M292.16 243.04 c0 -0.95 0.28 -1.12 1.78 -0.95 1.23 0.11 1.90 0.50 2.01 1.17 0.17 0.78 -0.22 0.95 -1.78 0.95 -1.67 0 -2.01 -0.22 -2.01 -1.17z"/>
  <path d="M329.52 242.26 c0 -1.34 0.28 -1.95 0.84 -1.95 0.45 0 0.84 0.39 0.84 0.84 0 0.56 0.61 0.84 1.95 0.84 1.56 0 1.95 0.22 1.95 1.12 0 0.95 -0.39 1.12 -2.79 1.12 l-2.79 0 0 -1.95z"/>
  <path d="M495.12 242.82 c0 -0.89 -0.33 -1.39 -0.84 -1.39 -0.56 0 -0.84 -0.61 -0.84 -1.95 0 -2.68 1.34 -2.51 2.17 0.28 0.56 1.84 0.89 2.23 2.01 2.23 1 0 1.39 0.28 1.39 1.12 0 0.89 -0.39 1.12 -1.95 1.12 -1.73 0 -1.95 -0.17 -1.95 -1.39z"/>
  <path d="M504.60 243.10 c0 -0.89 0.39 -1.12 1.95 -1.12 l1.95 0 0 -2.79 c0 -2.40 0.17 -2.79 1.12 -2.79 1 0 1.12 0.39 1.12 3.57 l0 3.51 -2.06 0.39 c-3.46 0.56 -4.07 0.45 -4.07 -0.78z"/>
  <path d="M517.42 242.26 c0 -1.06 0.28 -1.95 0.56 -1.95 0.33 0 0.56 0.39 0.56 0.84 0 0.50 0.50 0.84 1.39 0.84 1 0 1.39 0.28 1.39 1.12 0 0.89 -0.39 1.12 -1.95 1.12 -1.84 0 -1.95 -0.11 -1.95 -1.95z"/>
  <path d="M319.49 242.54 c0 -0.28 0.39 -0.56 0.84 -0.56 0.67 0 0.84 -0.84 0.84 -4.18 0 -3.79 0.11 -4.18 1.12 -4.18 1 0 1.12 0.39 1.12 4.74 l0 4.74 -1.95 0 c-1.06 0 -1.95 -0.22 -1.95 -0.56z"/>
  <path d="M272.09 237.80 c0 -2.06 1.23 -2.73 1.90 -1.06 0.67 1.78 0.33 3.01 -0.78 3.01 -0.89 0 -1.12 -0.39 -1.12 -1.95z"/>
  <path d="M229.16 234.18 l0 -3.35 1.95 0 1.95 0 0 3.35 0 3.35 -1.95 0 -1.95 0 0 -3.35z"/>
  <path d="M185.11 235.01 c0 -1.84 0.11 -1.95 1.95 -1.95 1.84 0 1.95 0.11 1.95 1.95 0 1.84 -0.11 1.95 -1.95 1.95 -1.84 0 -1.95 -0.11 -1.95 -1.95z"/>
  <path d="M112.80 233.90 c0.33 -1.06 0.89 -1.95 1.34 -1.95 0.45 0 0.72 0.72 0.72 1.95 0 1.67 -0.17 1.95 -1.34 1.95 -1.28 0 -1.34 -0.11 -0.72 -1.95z"/>
  <path d="M328.96 233.90 c0 -1.84 0.11 -1.95 1.95 -1.95 1.06 0 1.95 0.28 1.95 0.56 0 0.33 -0.39 0.56 -0.84 0.56 -0.50 0 -0.84 0.50 -0.84 1.39 0 1 -0.28 1.39 -1.12 1.39 -0.89 0 -1.12 -0.39 -1.12 -1.95z"/>
  <path d="M303.32 232.84 c0 -0.72 0.39 -1.51 0.89 -1.67 1.23 -0.50 4.13 -0.39 4.13 0.11 0 0.50 -1.78 1.62 -3.68 2.34 -1.17 0.45 -1.34 0.39 -1.34 -0.78z"/>
  <path d="M472.26 228.71 c0 -0.89 0.39 -2.96 0.89 -4.63 0.45 -1.67 1.34 -4.74 1.95 -6.80 l1.12 -3.79 2.01 0.17 2.01 0.17 1.84 6.41 c1.06 3.51 1.84 7.19 1.73 8.08 l-0.11 1.67 -5.69 0.17 -5.74 0.17 0 -1.62z"/>
  <path d="M321.16 227.49 c0 -1.84 0.17 -2.23 1.12 -2.23 0.95 0 1.12 0.39 1.12 2.23 0 1.84 -0.17 2.23 -1.12 2.23 -0.95 0 -1.12 -0.39 -1.12 -2.23z"/>
  <path d="M186.12 227.10 c-0.89 -0.22 -1 -1.06 -1 -7.47 l0 -7.19 5.58 0 c8.98 0 10.59 1.17 10.59 7.81 0 2.73 -0.22 3.51 -1.51 4.96 -1.28 1.45 -1.95 1.73 -3.90 1.73 -2.34 0 -2.40 0 -2.40 -1.95 0 -1.34 0.28 -1.95 0.84 -1.95 1 0 3.07 -2.17 3.07 -3.18 0 -0.45 -0.61 -1.39 -1.39 -2.12 -1.06 -1.12 -1.90 -1.39 -4.18 -1.39 l-2.79 0 0 3.62 c0 2.84 0.17 3.62 0.84 3.62 0.56 0 0.84 0.61 0.84 1.95 0 1.84 -0.11 1.95 -1.78 1.90 -1 -0.06 -2.29 -0.17 -2.79 -0.33z"/>
  <path d="M256.31 225.54 c-6.69 -1.73 -8.14 -2.40 -9.03 -4.24 -1.78 -3.46 -0.72 -7.36 2.34 -8.70 4.46 -1.84 13.27 0.22 14.78 3.46 0.39 0.89 1.06 1.39 1.95 1.39 1.45 0 1.78 1.51 0.39 1.78 -0.84 0.17 -2.45 3.68 -2.45 5.41 0 0.45 0.45 1.12 1 1.51 1.56 1.23 -3.29 0.89 -8.98 -0.61z"/>
  <path d="M488.99 224.98 c0 -1.23 0.28 -1.95 0.72 -1.95 0.45 0 1 0.89 1.34 1.95 0.61 1.84 0.56 1.95 -0.72 1.95 -1.17 0 -1.34 -0.28 -1.34 -1.95z"/>
  <path d="M299.97 225.98 c0 -0.28 0.89 -1.17 1.95 -2.01 l1.95 -1.56 0 2.01 c0 1.84 -0.11 1.95 -1.95 1.95 -1.06 0 -1.95 -0.17 -1.95 -0.39z"/>
  <path d="M149.43 223.31 l0 -1.95 6.13 0 6.13 0 0 1.95 0 1.95 -6.13 0 -6.13 0 0 -1.95z"/>
  <path d="M124.89 222.47 c0 -2.17 1.73 -8.36 2.34 -8.36 0.22 0 0.45 -0.39 0.45 -0.84 0 -0.67 0.72 -0.84 3.35 -0.84 l3.35 0 0 1.95 c0 1.84 -0.11 1.95 -1.84 1.95 -1.78 0 -1.84 0.06 -2.90 3.90 -1.06 3.85 -1.12 3.90 -2.90 3.90 -1.67 0 -1.84 -0.17 -1.84 -1.67z"/>
  <path d="M158.35 218.84 c0 -1.84 0.11 -1.95 1.95 -1.95 1.84 0 1.95 0.11 1.95 1.95 0 1.84 -0.11 1.95 -1.95 1.95 -1.84 0 -1.95 -0.11 -1.95 -1.95z"/>
  <path d="M167.27 211.88 l0 -8.92 3.90 0 3.90 0 0 4.74 0 4.74 1.67 0 c1.56 0 1.67 0.17 1.67 1.95 l0 1.95 -3.62 0 -3.62 0 0 2.23 c0 2.17 -0.06 2.23 -1.95 2.23 l-1.95 0 0 -8.92z"/>
  <path d="M508.50 217.17 c0 -1.84 -0.22 -2.51 -0.84 -2.51 -0.45 0 -0.84 -0.39 -0.84 -0.84 0 -0.56 0.61 -0.84 1.95 -0.84 l1.95 0 0 3.35 c0 2.96 -0.11 3.35 -1.12 3.35 -0.95 0 -1.12 -0.39 -1.12 -2.51z"/>
  <path d="M321.16 216.89 c0 -2.12 -0.11 -2.23 -1.67 -2.23 -1.28 0 -1.67 -0.22 -1.67 -1.12 0 -0.84 0.39 -1.12 1.56 -1.12 3.57 0 4.01 0.45 4.01 3.68 0 2.62 -0.11 3.01 -1.12 3.01 -0.95 0 -1.12 -0.39 -1.12 -2.23z"/>
  <path d="M347.36 211.82 c0 -6.64 0.11 -7.25 1 -7.08 0.84 0.17 0.95 1.06 1.12 7.30 0.11 6.80 0.11 7.08 -1 7.08 -1.06 0 -1.12 -0.33 -1.12 -7.30z"/>
  <path d="M328.96 215.50 c0 -1.84 0.11 -1.95 1.95 -1.95 1.06 0 1.95 0.28 1.95 0.56 0 0.33 -0.39 0.56 -0.84 0.56 -0.50 0 -0.84 0.50 -0.84 1.39 0 1 -0.28 1.39 -1.12 1.39 -0.89 0 -1.12 -0.39 -1.12 -1.95z"/>
  <path d="M103.15 214.38 l0 -1.95 2.84 0 c2.40 0 2.79 0.17 2.62 1 -0.11 0.67 -0.78 1 -2.23 1.12 -1.51 0.11 -1.95 0.39 -1.73 1 0.17 0.45 -0.06 0.78 -0.61 0.78 -0.67 0 -0.89 -0.56 -0.89 -1.95z"/>
  <path d="M135.49 214.38 c0 -1.84 0.11 -1.95 1.95 -1.95 1.84 0 1.95 0.11 1.95 1.95 0 1.84 -0.11 1.95 -1.95 1.95 -1.84 0 -1.95 -0.11 -1.95 -1.95z"/>
  <path d="M149.43 214.38 l0 -1.95 5.85 0 5.85 0 0 1.95 0 1.95 -5.85 0 -5.85 0 0 -1.95z"/>
  <path d="M340.12 215.50 c0 -0.61 -0.67 -0.84 -2.51 -0.84 -2.12 0 -2.51 -0.17 -2.51 -1.12 0 -0.95 0.39 -1.12 2.79 -1.12 l2.79 0 0 1.95 c0 1.06 -0.11 1.95 -0.28 1.95 -0.17 0 -0.28 -0.39 -0.28 -0.84z"/>
  <path d="M516.86 214.38 l0 -1.95 3.12 0 c2.62 0 3.07 0.17 2.90 1 -0.11 0.67 -0.78 1 -2.29 1.12 -1.34 0.11 -2.06 0.45 -2.06 1 0 0.45 -0.39 0.78 -0.84 0.78 -0.56 0 -0.84 -0.61 -0.84 -1.95z"/>
  <path d="M520.77 205.96 c0 -1.84 1.84 -1.67 2.12 0.22 0.17 0.95 -0.11 1.23 -0.95 1.23 -0.89 0 -1.17 -0.33 -1.17 -1.45z"/>
  <path d="M135.49 204.91 c0 -1.84 0.11 -1.95 1.95 -1.95 1.84 0 1.95 0.11 1.95 1.95 0 1.84 -0.11 1.95 -1.95 1.95 -1.84 0 -1.95 -0.11 -1.95 -1.95z"/>
  <path d="M170.62 187.68 c0 -0.39 0.45 -0.89 1 -1.06 0.50 -0.11 1.39 -0.45 1.95 -0.67 0.78 -0.33 0.95 -0.11 0.95 1.06 0 1.28 -0.22 1.45 -1.95 1.45 -1.28 0 -1.95 -0.28 -1.95 -0.78z"/>
  <path d="M371.90 186.78 c0 -1.12 0.39 -1.12 15.89 -1.12 15.50 0 15.89 0 15.89 1.12 0 1.12 -0.39 1.12 -15.89 1.12 -15.50 0 -15.89 0 -15.89 -1.12z"/>
  <path d="M406.47 186.78 c0 -1.12 0.39 -1.12 37.08 -1.12 36.69 0 37.08 0 37.08 1.12 0 1.12 -0.39 1.12 -37.08 1.12 -36.69 0 -37.08 0 -37.08 -1.12z"/>
 </g>
 <g fill="#010101">
  <path d="M264.29 425.87 c-2.90 -0.84 -4.74 -2.40 -6.08 -5.19 -1.12 -2.40 -1.17 -3.29 -1.17 -24.37 0 -20.18 -0.11 -22.08 -1.06 -24.20 -0.56 -1.28 -1.62 -2.73 -2.34 -3.23 -1.51 -1.06 -5.63 -1.17 -7.36 -0.22 -1.12 0.56 -14.27 13.83 -26.26 26.48 -4.96 5.19 -6.86 6.30 -10.87 6.30 -4.96 0 -5.46 -0.39 -16.50 -11.71 -46.33 -47.78 -45.27 -46.67 -46.61 -49.18 -1.45 -2.79 -1.34 -6.41 0.22 -9.26 0.67 -1.28 7.58 -8.70 15.28 -16.56 7.75 -7.81 14.61 -15.22 15.22 -16.45 1.39 -2.73 1.39 -4.80 0 -7.08 -1.95 -3.23 -1.73 -3.23 -25.37 -3.51 -20.69 -0.28 -21.86 -0.33 -23.98 -1.45 -1.23 -0.61 -2.96 -2.23 -3.90 -3.51 -1.51 -2.12 -1.73 -2.90 -1.95 -7.69 l-0.28 -5.35 -12.82 0.06 c-7.03 0.06 -13.27 -0.06 -13.77 -0.22 -0.72 -0.22 -1 -0.89 -1 -2.45 0 -2.06 0.06 -2.12 2.40 -2.45 1.28 -0.22 7.47 -0.33 13.77 -0.28 l11.43 0.17 0.17 -13.60 c0.06 -7.47 0 -13.44 -0.17 -13.33 -0.22 0.28 -3.40 10.59 -4.01 13.21 -0.28 1.17 -0.56 1.23 -5.80 1.23 l-5.46 0 -3.90 -12.10 c-2.12 -6.69 -4.80 -15.11 -5.91 -18.68 l-2.01 -6.58 -1.95 0 -1.90 0 0 -5.02 0 -5.02 9.09 0.11 9.03 0.17 0 4.68 0 4.74 -1.95 0 c-1.62 0.06 -1.90 0.22 -1.78 1.17 0.17 0.89 5.41 17.51 6.58 20.91 0.22 0.56 0.56 0.17 1.06 -1.12 0.61 -1.62 4.80 -14.83 6.08 -19.35 0.33 -1.06 0.17 -1.23 -1.45 -1.39 l-1.84 -0.17 -0.17 -4.85 -0.17 -4.91 3.40 0 3.35 0 0 -4.63 c0 -5.69 1.34 -8.70 4.96 -11.26 l2.40 -1.67 21.75 -0.17 c20.91 -0.17 21.86 -0.22 23.42 -1.28 2.90 -2.06 4.07 -6.19 2.62 -9.03 -0.78 -1.51 -3.79 -4.74 -17.84 -19.18 -12.60 -13.05 -13.94 -14.78 -14.33 -18.51 -0.45 -5.13 -0.22 -5.46 29.72 -36.24 16.89 -17.40 28.60 -28.99 29.89 -29.66 2.79 -1.39 7.14 -1.39 9.87 0 1.12 0.56 7.36 6.52 13.77 13.27 18.12 18.85 17.67 18.40 20.30 19.12 2.01 0.50 2.68 0.45 4.35 -0.39 1.12 -0.56 2.56 -1.73 3.18 -2.56 1.12 -1.51 1.17 -2.45 1.45 -24.87 l0.28 -23.31 1.51 -2.23 c3.01 -4.57 0.67 -4.35 45.61 -4.52 42.15 -0.17 42.65 -0.17 46.05 2.40 3.90 2.96 3.68 -1.51 3.74 68.02 0.11 62.34 0.11 62.67 1.28 64.18 0.61 0.84 1.78 2.06 2.62 2.68 1.51 1.12 2.40 1.12 62.39 1.23 33.51 0.11 61.78 0.33 62.78 0.50 1 0.17 2.68 1.12 3.79 2.06 3.74 3.29 3.74 3.46 3.90 21.08 l0.11 15.89 2.06 6.69 c3.07 9.98 3.18 10.20 5.24 9.87 l1.73 -0.22 0 5.07 0 5.07 -4.57 0 -4.63 0 0.06 6.24 0.06 6.19 16 -0.11 16 -0.11 -0.17 2.68 -0.17 2.68 -15.78 0.11 -15.72 0.11 -0.22 5.30 c-0.17 4.74 -0.33 5.63 -1.78 7.97 -1.06 1.67 -2.51 3.07 -4.07 3.90 -2.45 1.28 -2.51 1.28 -24.25 1.28 -20.91 0 -21.86 0.06 -23.64 1.12 -1.84 1.12 -3.46 3.96 -3.46 6.02 0 2.51 3.35 6.52 16.23 19.46 7.53 7.64 14.27 14.83 15 16.06 1.95 3.12 1.90 7.58 -0.06 10.43 -0.78 1.12 -11.54 12.55 -23.92 25.37 -12.43 12.82 -24.59 25.42 -27.04 27.99 -4.91 5.07 -7.64 6.69 -11.37 6.75 -4.46 0 -6.24 -1.45 -21.24 -16.78 -7.81 -8.03 -14.94 -15.05 -15.89 -15.61 -3.29 -2.06 -7.92 -0.67 -9.87 2.90 -0.95 1.73 -1 3.62 -1 23.81 0 23.81 -0.06 24.31 -3.23 27.60 -3.01 3.18 -3.35 3.18 -46.05 3.12 -24.09 0 -39.81 -0.28 -41.04 -0.61z m35.85 -4.74 c-0.72 -0.11 -1.84 -0.11 -2.51 0 -0.72 0.11 -0.17 0.22 1.23 0.22 1.39 0 1.95 -0.11 1.28 -0.22z m32.84 0 c-4.07 -0.11 -10.59 -0.11 -14.50 0 -3.90 0.06 -0.56 0.17 7.42 0.17 7.97 0 11.15 -0.11 7.08 -0.17z m12.04 0 c-0.56 -0.11 -1.56 -0.11 -2.23 0 -0.72 0.11 -0.28 0.22 0.95 0.22 1.23 0.06 1.78 -0.06 1.28 -0.22z m1 -3.18 l1.90 -1.90 0 -22.53 c0 -20.57 0.11 -22.64 1.06 -24.70 2.34 -5.13 6.47 -7.53 12.88 -7.47 4.52 0 5.74 0.33 6.02 1.56 0.11 0.56 -0.17 0.67 -1.12 0.33 -0.72 -0.17 -2.68 -0.45 -4.35 -0.56 l-3.07 -0.22 3.07 0.45 c3.74 0.61 4.63 0.89 7.81 2.96 l2.51 1.62 -1.95 -1.67 c-1.06 -0.95 -2.12 -1.73 -2.34 -1.73 -0.22 0 -0.28 -0.39 -0.11 -0.84 0.22 -0.45 0.56 -0.67 0.84 -0.50 0.28 0.17 0.39 0.56 0.22 0.84 -0.22 0.28 -0.11 0.50 0.22 0.50 0.84 0 3.40 2.90 3.07 3.46 -0.39 0.61 15.95 17.23 16.56 16.84 0.28 -0.17 0.39 0.06 0.22 0.45 -0.39 1.06 9.98 11.32 10.87 10.76 0.50 -0.28 0.61 -0.22 0.33 0.17 -0.28 0.45 0.33 0.67 1.95 0.67 2.73 0 0.95 1.67 28.99 -27.32 10.20 -10.59 21.02 -21.75 24.03 -24.87 5.02 -5.19 5.46 -5.80 5.46 -7.81 0 -1.23 -0.39 -2.84 -0.95 -3.57 -0.50 -0.78 -7.25 -7.81 -14.94 -15.61 -7.75 -7.81 -14.55 -15.11 -15.11 -16.17 -0.67 -1.28 -1 -3.12 -1.06 -5.58 0 -4.74 1.90 -8.20 5.74 -10.43 l2.62 -1.56 22.30 -0.28 c23.25 -0.28 24.09 -0.39 25.37 -2.79 0.28 -0.56 0.56 -3.18 0.56 -5.80 l0 -4.80 -41.37 0 c-22.80 0 -93.22 -0.06 -156.56 -0.17 -63.34 -0.11 -91.94 -0.11 -63.56 0 33.18 0.11 51.74 0.39 52.08 0.72 0.39 0.39 -16.78 0.56 -50.96 0.61 -28.38 0.06 -61.72 0.11 -74.16 0.17 l-22.58 0.06 0 3.23 c0 2.73 0.22 3.40 1.56 4.74 l1.51 1.51 22.19 0.28 c24.70 0.33 23.75 0.17 27.54 4.35 3.57 3.96 4.24 11.93 1.45 17.17 -0.72 1.39 -7.58 8.92 -15.89 17.45 -9.59 9.81 -14.66 15.44 -14.66 16.23 0 0.72 8.20 9.59 24.14 26.09 13.27 13.72 25.37 26.26 26.87 27.88 3.23 3.51 5.41 4.85 6.86 4.07 0.50 -0.28 5.24 -4.96 10.48 -10.48 18.85 -19.63 19.40 -20.13 21.97 -21.30 1.84 -0.84 3.68 -1.17 7.03 -1.17 6.02 0 9.76 1.78 12.21 5.80 l1.67 2.73 0.28 23.53 c0.28 25.09 0.28 24.81 3.07 25.93 0.61 0.28 18.29 0.50 39.25 0.50 l38.08 0.06 1.90 -1.90z m3.40 -33.34 c-0.06 -6.24 -0.11 -1.28 -0.11 10.98 0 12.27 0.06 17.34 0.11 11.32 0.11 -6.02 0.11 -16.06 0 -22.30z m-144.24 10.54 c0 -0.06 -1.34 -1.39 -2.90 -2.90 l-2.96 -2.79 2.79 2.96 c2.56 2.68 3.07 3.18 3.07 2.73z m15.61 -8.03 c0 -0.45 -0.50 0 -2.79 2.51 l-2.51 2.62 2.68 -2.51 c1.45 -1.34 2.62 -2.51 2.62 -2.62z m-28.99 -5.91 c0 -0.06 -1.45 -1.51 -3.18 -3.18 l-3.23 -3.07 3.07 3.23 c2.79 2.96 3.35 3.46 3.35 3.01z m40.70 -6.24 c1.67 -1.67 2.90 -3.07 2.73 -3.07 -0.11 0 -1.62 1.39 -3.29 3.07 -1.67 1.67 -2.90 3.07 -2.73 3.07 0.11 0 1.62 -1.39 3.29 -3.07z m121.49 -9.09 c0.50 -0.39 1.90 -1.23 3.12 -1.78 1.23 -0.61 1.84 -1.12 1.34 -1.12 -2.06 0 -8.31 5.58 -8.31 7.42 0 0.33 0.67 -0.45 1.45 -1.62 0.84 -1.17 1.90 -2.51 2.40 -2.90z m-178.92 -1.95 c0 -0.06 -1.56 -1.62 -3.46 -3.46 l-3.51 -3.35 3.35 3.51 c3.07 3.23 3.62 3.74 3.62 3.29z m-19.51 -20.07 c0 -0.11 -0.95 -1.06 -2.06 -2.12 l-2.12 -1.90 1.90 2.12 c1.84 1.90 2.29 2.34 2.29 1.90z m18.12 -33.84 c2.73 -2.73 4.85 -5.02 4.74 -5.02 -0.17 0 -2.56 2.29 -5.30 5.02 -2.73 2.79 -4.85 5.02 -4.74 5.02 0.17 0 2.56 -2.23 5.30 -5.02z m-12.10 -27.71 c-4.52 -0.11 -12.04 -0.11 -16.73 0 -4.68 0.06 -1 0.17 8.20 0.17 9.20 0 13.05 -0.11 8.53 -0.17z m-2.29 -12.82 c-6.08 -0.11 -15.89 -0.11 -21.75 0 -5.91 0.06 -0.89 0.11 11.04 0.11 11.99 0 16.78 -0.06 10.71 -0.11z m79.06 -5.02 c-64.73 -0.39 -111.68 -0.39 -111.40 0 0.11 0.22 30.78 0.33 68.08 0.28 37.30 -0.11 56.82 -0.22 43.32 -0.28z m102.31 -0.28 c0 -0.22 0.67 -0.17 1.56 0.17 0.95 0.33 28.38 0.45 72.32 0.39 l70.81 -0.17 0 -6.41 0 -6.41 -1.51 0 -1.56 0.06 0 -4.57 0 -4.63 1.84 -0.17 c1.84 -0.17 1.90 -0.33 1.23 -3.62 -0.28 -1.23 -0.50 -1.28 -7.25 -1.28 -3.79 0 -7.03 0.17 -7.14 0.45 -0.17 0.22 -0.45 1.17 -0.61 2.17 -0.39 1.67 -0.33 1.78 1.45 1.95 l1.84 0.17 0.17 4.91 0.17 4.91 -8.81 -0.17 -8.81 -0.17 -0.17 -4.57 -0.17 -4.63 2.01 0 c1.12 0 2.06 -0.33 2.23 -0.67 0.11 -0.39 2.23 -7.64 4.74 -16.06 2.56 -8.42 4.96 -16.50 5.35 -17.95 0.56 -1.78 1.17 -2.73 2.01 -2.96 0.61 -0.22 3.74 -0.22 6.91 0 l5.74 0.39 0.22 1.73 c0.11 1 0.28 -1.34 0.28 -5.19 0.11 -5.69 -0.06 -7.25 -0.78 -8.31 -2.12 -2.96 0.06 -2.84 -65.18 -2.84 -50.24 0.06 -60.77 -0.11 -62.28 -0.72 -2.68 -1.12 -5.35 -3.57 -6.75 -6.19 l-1.23 -2.29 -0.17 -62.78 -0.11 -62.84 -1.34 -1.39 c-0.95 -1 -2.12 -1.51 -4.29 -1.78 -1.67 -0.17 -19.91 -0.28 -40.48 -0.17 l-37.52 0.17 -1.51 1.56 -1.56 1.51 -0.28 23.03 c-0.28 22.41 -0.33 23.03 -1.51 25.31 -2.68 4.96 -7.97 7.47 -13.27 6.30 -4.07 -0.89 -5.46 -1.95 -13.77 -10.71 -20.91 -21.91 -21.80 -22.75 -23.70 -22.75 -1 0 -2.40 0.28 -3.18 0.61 -0.72 0.33 -11.99 11.60 -24.98 24.98 -34.68 35.63 -33.18 33.84 -31.67 37.47 0.39 0.89 7.25 8.36 15.22 16.56 15.56 16.06 17.12 18.07 17.12 23.14 0 3.23 -0.95 5.63 -3.40 8.53 l-1.84 2.17 1.84 -1.67 c2.45 -2.23 4.01 -5.80 4.07 -9.37 0.06 -3.35 -0.95 -5.69 -4.13 -9.26 -1.62 -1.90 -1.95 -2.62 -1.45 -3.01 0.56 -0.33 0.50 -0.45 -0.17 -0.22 -0.56 0.17 -1.56 -0.39 -2.56 -1.45 -2.73 -3.01 -3.29 -4.18 -0.67 -1.51 1.34 1.39 2.68 2.45 2.96 2.34 0.67 -0.22 2.06 1.06 1.67 1.62 -0.17 0.28 0.06 0.50 0.45 0.56 0.39 0 1.67 1.95 2.84 4.29 3.23 6.58 2.90 12.15 -1.06 16.78 -3.23 3.85 -3.68 3.96 -26.71 3.96 -18.51 0 -20.85 0.11 -22.58 1 -2.34 1.17 -3.35 2.96 -3.35 6.13 l0 2.34 3.07 0 3.07 0 0 6.36 0 6.41 -1.78 0.17 c-1.73 0.17 -1.90 0.39 -3.12 4.07 -1.23 3.79 -1.23 4.46 -1.12 23.42 l0.17 19.51 70.70 0.06 c38.86 0.06 70.87 0.22 71.03 0.45 0.39 0.39 -1.90 0.56 -4.57 0.39 -0.95 -0.06 -1.39 0.11 -1 0.33 0.78 0.56 76 0.61 76 0.06z m141.18 -35.85 c0.33 -0.33 -3.01 -12.27 -3.57 -12.82 -0.33 -0.33 -0.78 0.95 -3.46 10.20 l-0.84 2.90 3.79 0 c2.06 0 3.90 -0.11 4.07 -0.28z m-349.82 -14.05 c-0.56 -0.11 -1.45 -0.11 -1.95 0 -0.56 0.17 -0.11 0.28 0.95 0.28 1.06 0 1.51 -0.11 1 -0.28z m-5.07 -17.28 c-0.17 -0.56 -0.28 -0.11 -0.28 0.95 0 1.06 0.11 1.51 0.28 1 0.11 -0.56 0.11 -1.45 0 -1.95z m35.74 -5.02 c-5.80 -0.11 -15.17 -0.11 -20.91 0 -5.80 0.06 -1.06 0.11 10.43 0.11 11.49 0 16.23 -0.06 10.48 -0.11z m13.27 -1.06 c1.06 -0.84 1.06 -0.84 -0.06 -0.33 -0.61 0.28 -1.51 0.67 -1.95 0.84 -0.72 0.28 -0.72 0.33 0.06 0.33 0.45 0.06 1.34 -0.33 1.95 -0.84z"/>
  <path d="M135.88 253.30 c-0.22 -0.17 -0.39 -3.07 -0.39 -6.36 0 -6.41 0.11 -6.64 3.12 -6.64 l1.34 0 0 -11.93 0 -11.99 -2.06 -0.17 -2.12 -0.17 0 -6.41 0 -6.41 17.45 -0.17 17.40 -0.11 0 8.92 0 8.98 -5.97 -0.17 -6.02 -0.17 -0.28 -2.23 c-0.28 -2.23 -0.28 -2.23 -2.90 -2.40 l-2.68 -0.17 0 3.07 0 3.12 4.46 0 4.46 0 0 6.41 0 6.41 -4.52 0 -4.46 0 0.17 2.96 0.17 2.90 2.68 0.17 2.62 0.17 0 -2.51 0 -2.56 6.13 0 6.13 0 0 8.92 0 8.92 -17.17 0 c-9.48 0 -17.40 -0.17 -17.56 -0.39z m33.45 -12.27 c-0.11 -2.06 -0.17 -0.50 -0.17 3.46 0 4.01 0.06 5.69 0.17 3.79 0.11 -1.90 0.11 -5.19 0 -7.25z m-11.10 1.12 c-1.17 -0.11 -3.18 -0.11 -4.46 0 -1.34 0.11 -0.39 0.22 2.06 0.22 2.45 0 3.51 -0.11 2.40 -0.22z m0.84 -18.96 c-0.72 -0.11 -1.84 -0.11 -2.51 0 -0.72 0.11 -0.17 0.22 1.23 0.22 1.39 0 1.95 -0.11 1.28 -0.22z m10.26 -15.05 c-0.11 -2.12 -0.17 -0.39 -0.17 3.74 0 4.13 0.06 5.85 0.17 3.79 0.11 -2.12 0.11 -5.46 0 -7.53z m-11.65 6.13 c-1.17 -0.11 -3.18 -0.11 -4.46 0 -1.34 0.11 -0.39 0.22 2.06 0.22 2.45 0 3.51 -0.11 2.40 -0.22z"/>
  <path d="M171.84 247.17 l0.17 -6.58 1.84 -0.17 1.78 -0.17 -0.11 -12.10 -0.17 -12.10 -2.17 -0.17 -2.17 -0.17 0.39 -4.24 c0.17 -2.34 0.33 -5.24 0.33 -6.41 l0 -2.23 14.11 0.22 c16.11 0.22 17.28 0.50 21.02 4.74 3.12 3.57 4.07 6.91 3.79 13.27 -0.17 4.68 -0.39 5.46 -2.06 8.14 l-1.78 2.96 1.84 4.01 c1.78 3.96 1.90 4.07 4.07 4.24 l2.23 0.17 0.17 6.24 0.17 6.19 -2.96 0.39 c-1.62 0.17 -6.47 0.28 -10.76 0.17 l-7.81 -0.17 -0.17 -6.30 c-0.11 -5.13 0 -6.30 0.67 -6.58 0.72 -0.28 0.72 -0.56 -0.06 -2.23 -0.84 -1.73 -1.17 -1.90 -3.35 -1.90 -2.34 0 -2.40 0.06 -2.40 1.90 0 1.84 0.11 1.95 2.12 2.12 l2.06 0.17 0 6.41 0 6.41 -10.48 0.17 -10.48 0.11 0.17 -6.52z m1.67 -1.67 c0.11 -1.84 0 -3.29 -0.22 -3.12 -0.28 0.11 -0.39 2.29 -0.39 4.80 0.11 4.80 0.33 4.13 0.61 -1.67z m33.90 -7.92 c-1.56 -3.12 -1.95 -2.90 -0.45 0.22 0.67 1.34 1.28 2.40 1.45 2.29 0.11 -0.11 -0.33 -1.23 -1 -2.51z m0.06 -9.92 c0.67 -1.06 1.06 -2.06 0.84 -2.23 -0.17 -0.22 -0.33 -0.06 -0.33 0.28 0 0.33 -0.89 1.78 -2.06 3.29 -1.12 1.45 -1.45 2.17 -0.78 1.62 0.67 -0.61 1.73 -1.95 2.34 -2.96z m-16.06 -13.16 l4.01 -0.17 -4.29 -0.11 -4.35 -0.11 0.11 5.74 0.11 5.69 0.17 -5.41 0.22 -5.41 4.01 -0.22z m18.18 5.24 c0.06 -4.13 -0.28 -3.40 -0.61 1.34 -0.17 2.23 -0.11 3.40 0.17 2.79 0.22 -0.61 0.45 -2.45 0.45 -4.13z m-13.10 2.17 c1.06 -1.28 1.28 -2.01 0.95 -2.96 -0.56 -1.67 -3.74 -3.18 -6.58 -3.18 l-2.40 0 0 3.90 0 3.90 3.29 0 c3.01 0 3.46 -0.17 4.74 -1.67z m2.96 -2.90 c-0.11 -0.72 -0.22 -0.28 -0.22 0.95 -0.06 1.23 0.06 1.78 0.22 1.28 0.11 -0.56 0.11 -1.56 0 -2.23z m8.53 -6.24 c-1.73 -3.68 -6.08 -7.58 -8.36 -7.58 -0.45 0 0.17 0.50 1.45 1.06 2.79 1.28 6.19 5.13 7.03 8.03 0.39 1.23 0.78 1.95 0.89 1.56 0.11 -0.33 -0.33 -1.73 -1 -3.07z m-31.89 1.51 c-0.56 -0.11 -1.56 -0.11 -2.23 0 -0.72 0.11 -0.28 0.22 0.95 0.22 1.23 0.06 1.78 -0.06 1.28 -0.22z m-2.84 -7.81 c-0.11 -1.17 -0.22 -0.33 -0.22 1.78 0 2.17 0.11 3.07 0.22 2.12 0.11 -1 0.11 -2.79 0 -3.90z"/>
  <path d="M216 252.97 c-0.11 -0.39 -0.17 -3.35 -0.11 -6.58 l0.17 -5.80 2.12 -0.17 2.06 -0.17 0 -11.93 c0 -12.88 0.06 -12.55 -3.12 -12.55 -1.06 0 -1.34 -0.28 -1.34 -1.51 0 -1.28 0.11 -1.39 0.72 -0.56 0.33 0.50 1.56 0.95 2.62 1.06 l1.95 0.17 0.28 13.66 0.33 13.66 0.11 -13.72 c0.11 -14.94 0.22 -14.44 -3.01 -14.44 -1.28 0 -1.34 -0.11 -1.34 -4.74 l0 -4.74 8.92 0 8.92 0 0 4.74 0 4.74 -1.95 0 -1.95 0 0 4.35 c0 4.74 0.39 6.97 1.17 6.47 0.28 -0.17 0.50 3.12 0.50 7.53 l0 7.86 1.90 0 1.90 0 0.39 4.63 c0.22 2.51 0.28 5.46 0.17 6.52 l-0.17 1.95 -10.48 0.17 c-8.31 0.11 -10.54 0 -10.76 -0.61z m1.56 -7.75 c0.11 -1.73 0 -3.01 -0.22 -2.84 -0.28 0.11 -0.39 2.17 -0.39 4.52 0.11 4.46 0.33 3.79 0.61 -1.67z m18.12 -2.23 c-0.11 -0.72 -0.22 -0.17 -0.22 1.23 0 1.39 0.11 1.95 0.22 1.28 0.11 -0.72 0.11 -1.84 0 -2.51z m-4.46 -9.76 c-0.17 -0.56 -0.28 -0.11 -0.28 0.95 0 1.06 0.11 1.51 0.28 1 0.11 -0.56 0.11 -1.45 0 -1.95z"/>
  <path d="M238.08 244.77 l0 -8.92 5.74 0.33 c3.57 0.22 6.02 0.67 6.58 1.12 0.50 0.45 1.06 0.61 1.28 0.39 0.22 -0.22 0.22 0 0 0.56 -0.17 0.50 -0.11 0.95 0.11 0.95 0.28 0 1.12 0.50 1.90 1.12 1.34 1.06 1.34 1.06 0.17 0.72 -0.72 -0.17 -2.01 -1.17 -2.96 -2.17 -1.62 -1.90 -1.67 -1.90 -6.69 -1.90 l-5.02 0 0.11 7.69 0.11 7.64 0.17 -7.36 0.22 -7.42 4.46 0 c4.29 0 4.52 0.06 5.85 1.62 1.84 2.17 5.46 3.51 8.92 3.29 2.56 -0.17 2.73 -0.28 2.62 -1.56 l-0.17 -1.39 0.61 1.39 0.56 1.39 1.06 -1.39 c2.68 -3.46 0.56 -5.63 -7.53 -7.75 -10.37 -2.68 -13.21 -4.35 -15.56 -9.09 -3.35 -6.64 -0.72 -14.39 6.02 -17.84 3.40 -1.78 10.31 -2.01 14.05 -0.56 2.90 1.17 2.90 1.17 3.18 0.06 0.28 -1 0.72 -1.12 4.68 -0.95 l4.35 0.17 0.17 7.14 0.17 7.08 -4.96 0 c-4.74 0 -4.96 -0.06 -5.58 -1.39 -0.72 -1.56 -4.13 -3.46 -7.19 -3.96 -4.68 -0.72 -8.36 2.51 -6.64 5.85 1 1.90 2.29 2.45 9.14 4.24 6.91 1.73 9.03 2.62 11.54 4.85 7.92 6.91 5.07 19.57 -5.02 22.47 -4.07 1.17 -9.65 0.84 -13.33 -0.72 l-2.45 -1.12 -0.28 1.34 c-0.11 0.72 0 1.34 0.22 1.34 0.28 0 0.50 -0.39 0.50 -0.89 0 -0.67 0.28 -0.78 1 -0.50 2.51 1.12 6.80 1.95 9.87 1.95 2.34 0 3.12 0.17 2.51 0.56 -1.06 0.67 -6.80 0.67 -9.76 0 -1.39 -0.33 -2.45 -0.28 -2.73 0 -0.33 0.33 -3.12 0.56 -6.30 0.56 l-5.74 0 0 -8.92z"/>
  <path d="M277.78 247.17 l0.17 -4.91 2.12 -0.17 2.06 -0.17 0 -13.60 0 -13.60 -2.06 -0.17 -2.12 -0.17 -0.17 -4.91 -0.17 -4.91 12.43 0.17 c11.21 0.17 12.66 0.28 14.94 1.34 3.01 1.39 5.58 3.85 7.03 6.75 1.56 3.18 1.51 11.32 -0.17 14.39 -2.68 5.07 -6.69 7.08 -14.50 7.42 l-5.74 0.22 0 3.57 c0 3.29 0.11 3.57 1.28 3.62 3.01 0.17 2.90 -0.06 2.90 4.91 l0 4.68 -9.09 0.28 -9.09 0.22 0.17 -4.96z m24.92 -23.59 c1.67 -2.01 1.56 -5.74 -0.17 -7.53 -1.39 -1.39 -4.74 -2.17 -8.42 -1.84 l-2.23 0.17 -0.17 5.52 -0.17 5.46 5.02 -0.17 c4.46 -0.22 5.07 -0.33 6.13 -1.62z"/>
  <path d="M317.48 251.29 c-0.17 -0.45 -0.22 -2.62 -0.11 -4.91 l0.17 -4.13 1.90 -0.28 1.95 -0.28 0 -13.49 c0.06 -11.65 -0.06 -13.55 -0.78 -13.60 -3.29 -0.22 -3.07 0.11 -3.23 -5.07 l-0.17 -4.91 15.95 0 c12.27 0 15.89 0.17 15.95 0.72 0.06 0.33 0.11 3.62 0.17 7.19 l0.06 6.58 -4.57 0 -4.63 0 0 -2.17 c0 -1.62 -0.28 -2.29 -0.95 -2.51 -1.39 -0.33 -8.31 0.39 -8.08 0.95 0.06 0.22 0.11 2.17 0.11 4.29 l0 3.90 4.46 0 4.46 0 0 4.74 0 4.74 -4.35 0 c-2.40 0 -4.52 0.11 -4.63 0.22 -0.11 0.11 -0.17 2.23 -0.06 4.63 0.17 4.18 0.28 4.40 1.39 4.29 0.67 -0.06 2.68 -0.17 4.46 -0.17 l3.18 -0.06 0 -2.23 0 -2.23 4.35 0 4.40 0 0.33 6.75 c0.22 3.74 0.28 6.91 0.11 7.19 -0.11 0.22 -7.30 0.45 -15.89 0.50 -12.94 0.11 -15.67 0 -15.95 -0.67z"/>
  <path d="M364.70 251.46 c-5.07 -1.06 -9.31 -4.91 -10.65 -9.53 -0.33 -1.06 -0.56 -7.42 -0.56 -14.16 0 -11.71 0.06 -12.38 1.34 -15.11 1.62 -3.46 4.68 -6.13 8.36 -7.19 3.74 -1.12 13.21 -1.12 17.01 0.06 5.58 1.62 9.53 7.36 9.53 13.72 l0 2.17 -4.57 -0.17 -4.63 -0.17 -0.33 -2.45 c-0.17 -1.34 -0.72 -2.73 -1.28 -3.12 -1.28 -0.95 -7.47 -1.56 -11.15 -1.12 -4.57 0.61 -4.85 1.12 -5.24 9.65 -0.33 9.53 0.22 15.44 1.62 16.78 2.12 1.95 12.82 1.95 14.89 0 0.61 -0.56 1.28 -2.01 1.51 -3.23 l0.39 -2.29 4.40 0 4.40 0 0 2.29 c0 1.28 -0.28 3.35 -0.67 4.63 -0.89 2.96 -5.52 7.64 -8.53 8.59 -2.84 0.95 -12.66 1.34 -15.83 0.67z"/>
  <path d="M402.67 247.17 l0.17 -4.91 2.12 -0.17 2.06 -0.17 0 -13.60 c0 -14.66 0.11 -14.22 -3.07 -14.22 -1.17 0 -1.34 0.28 -1.51 2.40 l-0.17 2.34 -4.29 0.17 -4.24 0.17 -0.39 -5.19 c-0.22 -2.84 -0.28 -6.08 -0.17 -7.14 l0.17 -1.95 18.12 0 18.12 0 0 6.97 0 6.97 -4.57 0.17 -4.57 0.17 -0.17 -2.40 c-0.17 -2.34 -0.22 -2.40 -2.29 -2.56 l-2.06 -0.17 0.11 14.11 0.17 14.11 1.95 0 1.95 0 0.17 4.91 0.17 4.85 -8.98 0 -8.98 0 0.17 -4.85z"/>
  <path d="M504.60 247 c0 -3.74 0.17 -5.02 0.72 -4.96 0.33 0.06 1.28 0.06 2.06 0 l1.39 -0.06 0 -13.66 c0 -13.66 0 -13.66 -1.23 -13.66 -2.73 0 -2.96 -0.39 -2.96 -5.35 l0 -4.68 8.92 0 c10.26 0 9.70 -0.39 9.37 6.13 l-0.17 3.62 -2.12 -0.17 -2.06 -0.22 0.11 14.16 0.17 14.11 2.12 -0.17 2.12 -0.22 -0.17 4.96 -0.17 4.91 -9.03 0.17 -9.09 0.22 0 -5.13z"/>
 </g>
 <g fill="#5fb2fc">
  <path d="M266.24 421.07 c-4.24 -1.45 -4.18 -1.12 -4.18 -26.32 0 -24.37 -0.06 -24.70 -3.23 -28.05 -2.45 -2.62 -5.24 -3.74 -9.09 -3.74 -5.80 0 -6.80 0.78 -22.30 16.89 -7.69 8.03 -14.66 15.05 -15.44 15.56 -0.84 0.56 -2.40 1 -3.46 1 -1.73 0 -2.62 -0.72 -9.48 -7.64 -20.13 -20.35 -47.50 -49.01 -48.29 -50.46 -1.67 -3.23 -1.06 -4.13 14.78 -20.18 9.09 -9.20 15.28 -16 15.95 -17.34 0.56 -1.23 1.12 -3.62 1.28 -5.30 0.28 -4.01 -1.90 -8.48 -5.19 -10.76 -3.35 -2.29 -7.08 -2.62 -28.21 -2.56 -12.94 0.06 -19.12 -0.17 -19.96 -0.56 -1.73 -0.95 -2.29 -2.40 -2.68 -7.30 l-0.33 -4.46 45.94 0 c25.26 0 46.45 0.17 47.11 0.33 0.84 0.22 1.34 1.06 1.78 3.12 0.39 1.51 0.67 3.46 0.67 4.35 0 1.23 0.39 1.73 1.67 2.34 0.95 0.39 1.67 0.89 1.67 1.12 0 0.28 0.50 0.45 1.12 0.45 0.61 0 1.12 0.22 1.12 0.56 0 1.34 12.27 13.94 13.60 13.94 0.50 0 0.89 0.45 0.89 1 0 0.50 1 1.56 2.23 2.34 1.23 0.78 2.23 1.51 2.23 1.73 0 0.89 2.23 2.73 3.29 2.73 0.61 0 1.17 0.28 1.17 0.56 0 0.33 0.50 0.56 1.12 0.56 0.72 0 1.12 0.39 1.12 1.12 0 0.89 0.39 1.12 1.67 1.12 1.51 0 1.67 0.17 1.67 1.73 0 1.17 0.45 2.06 1.34 2.79 0.78 0.61 1.56 1.56 1.73 2.17 0.22 0.61 0.72 1.12 1.17 1.12 0.45 0 0.78 0.22 0.78 0.50 0 0.61 0.89 1.56 3.23 3.35 1 0.72 1.78 1.56 1.78 1.84 0 0.61 3.40 3.96 6.02 5.97 1 0.72 1.78 1.62 1.78 2.01 0 0.33 0.61 1 1.39 1.39 0.78 0.39 1.39 0.89 1.39 1.12 0 0.84 2.12 2.79 3.01 2.79 0.50 0 0.89 0.28 0.89 0.67 0 0.33 0.39 1 0.84 1.51 2.45 2.56 5.30 5.97 5.30 6.30 0 0.28 0.28 0.45 0.61 0.45 0.89 0 2.17 1.45 2.17 2.45 0 0.50 0.39 0.89 0.89 0.89 0.95 0 5.24 4.07 5.24 5.02 0 0.28 0.33 0.56 0.72 0.56 0.39 0 1.06 0.50 1.51 1.17 1.45 2.06 2.62 3.29 3.12 3.29 0.28 0.06 1.28 1.06 2.17 2.23 0.95 1.17 1.84 2.17 2.06 2.23 0.17 0 1.62 1.28 3.18 2.79 1.56 1.56 3.18 2.79 3.62 2.79 0.45 0 1.12 0.78 1.56 1.67 0.39 0.95 0.89 1.67 1.12 1.67 0.28 0 0.45 0.28 0.45 0.56 0 0.33 0.50 1.06 1.12 1.67 0.61 0.61 1.39 1.12 1.67 1.12 0.33 0 0.56 0.28 0.56 0.56 0 0.33 0.39 0.56 0.84 0.56 0.45 0 0.84 0.50 0.84 1.12 0 0.72 0.39 1.12 1.12 1.12 0.61 0 1.12 0.33 1.12 0.72 0 0.78 1.95 2.62 2.73 2.62 0.28 0 0.84 0.78 1.28 1.67 0.39 0.95 1.06 1.67 1.39 1.67 0.39 0 0.72 0.50 0.72 1.12 0 0.72 0.39 1.12 1.06 1.12 0.61 0 1.28 0.50 1.45 1.12 0.17 0.61 0.61 1.12 0.95 1.12 0.89 0 2.34 1.84 3.51 4.46 0.67 1.45 1.39 2.23 2.06 2.23 0.56 0 1 0.22 1 0.50 0 0.72 5.35 6.19 6.08 6.19 0.33 0 0.61 0.50 0.61 1.12 0 0.61 0.28 1.12 0.56 1.12 0.33 0 0.56 0.72 0.56 1.56 0 0.89 0.45 1.90 1.12 2.34 1 0.72 1.12 1.45 1.12 6.02 0 4.74 -0.11 5.30 -1.39 6.52 -1 1.06 -1.95 1.39 -3.74 1.39 -1.34 0 -19.07 0.11 -39.48 0.22 -20.41 0.17 -37.58 0.11 -38.19 -0.11z"/>
  <path d="M388.62 392.25 c-1.34 -1.39 -2.34 -2.51 -2.17 -2.51 0.17 0 1.39 1.12 2.73 2.51 1.34 1.39 2.34 2.51 2.17 2.51 -0.17 0 -1.39 -1.12 -2.73 -2.51z"/>
  <path d="M415.94 392.25 c1.06 -1.06 2.01 -1.95 2.17 -1.95 0.17 0 -0.56 0.89 -1.62 1.95 -1.06 1.06 -2.01 1.95 -2.17 1.95 -0.17 0 0.56 -0.89 1.62 -1.95z"/>
  <path d="M431 376.64 c1.06 -1.06 2.01 -1.95 2.17 -1.95 0.17 0 -0.56 0.89 -1.62 1.95 -1.06 1.06 -2.01 1.95 -2.17 1.95 -0.17 0 0.56 -0.89 1.62 -1.95z"/>
  <path d="M371.06 374.02 l-3.90 -4.07 4.07 3.90 c2.17 2.12 4.01 3.96 4.01 4.01 0 0.45 -0.61 -0.11 -4.18 -3.85z"/>
  <path d="M236.97 377.30 c0 -0.11 0.84 -0.89 1.84 -1.84 l1.78 -1.62 -1.62 1.84 c-1.56 1.67 -2.01 2.06 -2.01 1.62z"/>
  <path d="M170 366.49 l-1.90 -2.12 2.12 1.90 c1.12 1.06 2.06 2.01 2.06 2.12 0 0.45 -0.45 0 -2.29 -1.90z"/>
  <path d="M448 359.07 c1.51 -1.51 2.84 -2.79 3.01 -2.79 0.17 0 -0.95 1.28 -2.45 2.79 -1.51 1.56 -2.84 2.79 -3.01 2.79 -0.17 0 0.95 -1.23 2.45 -2.79z"/>
  <path d="M458.04 323.28 l-3.90 -4.07 4.07 3.90 c2.17 2.12 4.01 3.96 4.01 4.01 0 0.45 -0.61 -0.11 -4.18 -3.85z"/>
  <path d="M490.83 274.04 c0 -2.12 0.11 -2.96 0.22 -1.78 0.11 1.12 0.11 2.90 0 3.90 -0.11 0.95 -0.22 0.06 -0.22 -2.12z"/>
  <path d="M114.19 269.47 c1.28 -0.11 3.29 -0.11 4.46 0 1.12 0.11 0.06 0.22 -2.40 0.22 -2.45 0 -3.40 -0.11 -2.06 -0.22z"/>
  <path d="M295.90 269.47 c5.85 -0.11 15.67 -0.11 21.75 0 6.08 0.06 1.28 0.11 -10.71 0.11 -11.93 0 -16.95 -0.06 -11.04 -0.11z"/>
  <path d="M493.89 269.47 c0.67 -0.11 1.78 -0.11 2.51 0 0.67 0.11 0.11 0.22 -1.28 0.22 -1.39 0 -1.95 -0.11 -1.23 -0.22z"/>
  <path d="M101.92 264.45 c1.28 -0.11 3.29 -0.11 4.46 0 1.12 0.11 0.06 0.22 -2.40 0.22 -2.45 0 -3.40 -0.11 -2.06 -0.22z"/>
  <path d="M273.37 264.45 c0.84 -0.11 2.17 -0.11 3.07 0 0.84 0.11 0.11 0.22 -1.56 0.22 -1.67 0 -2.40 -0.11 -1.51 -0.22z"/>
  <path d="M292.33 264.45 c7.25 -0.11 19.18 -0.11 26.48 0 7.25 0.06 1.28 0.11 -13.27 0.11 -14.55 0 -20.52 -0.06 -13.21 -0.11z"/>
  <path d="M333.87 264.45 c1 -0.11 2.51 -0.11 3.35 0 0.84 0.11 0 0.22 -1.84 0.22 -1.84 0 -2.51 -0.11 -1.51 -0.22z"/>
  <path d="M512.57 264.45 c2.06 -0.11 5.35 -0.11 7.25 0 1.90 0.11 0.22 0.17 -3.79 0.17 -3.96 0 -5.52 -0.06 -3.46 -0.17z"/>
  <path d="M126.96 263.90 c-0.22 -0.17 -0.39 -9.37 -0.39 -20.46 0 -19.12 0.06 -20.30 1.23 -24.42 1.23 -4.29 1.28 -4.35 3.07 -4.35 l1.84 0 0 -5.02 0 -5.02 -3.12 0 -3.18 0 0.45 -4.52 c0.17 -2.51 0.50 -4.91 0.67 -5.35 0.67 -1.78 3.35 -2.40 10.20 -2.40 l6.69 0 0 1.39 c0 1 -0.28 1.39 -1.12 1.39 -0.61 0 -1.12 0.39 -1.12 0.84 0 0.45 0.33 0.84 0.78 0.84 0.39 0 1.23 0.67 1.73 1.56 0.56 0.84 1.34 1.73 1.78 1.95 0.39 0.22 0.72 1.34 0.72 2.34 l0 1.95 -5.02 0 -5.02 0 0 5.02 0 5.02 2.23 0 2.23 0 0 13.66 0 13.66 -2.23 0 -2.23 0 0 5.02 0 5.02 16.06 -0.11 16 -0.17 0.17 -7.08 0.17 -7.14 -4.80 0 -4.74 0 0 2.23 0 2.23 -4.46 0 -4.46 0 0 -4.46 0 -4.46 4.46 0 4.46 0 0 -5.07 0 -5.13 -3.23 0.33 c-5.46 0.56 -5.69 0.39 -5.69 -4.40 l0 -4.13 4.46 0 4.46 0 0 2.23 c0 1.23 0.28 2.23 0.56 2.23 0.33 0 0.56 0.33 0.56 0.78 0 0.45 0.39 0.89 0.84 1.12 0.45 0.17 0.84 0.67 0.84 1.17 0 0.45 0.28 0.84 0.56 0.84 0.33 0 0.56 0.50 0.56 1.06 0 1.51 0.56 2.84 1.23 2.84 0.61 0 2.68 2.12 2.68 2.79 0 0.56 3.57 1.67 5.63 1.67 3.29 0.06 3.85 0.89 3.85 6.02 l0 4.52 -2.06 0.17 -2.12 0.17 0 4.74 0 4.74 8.87 0.17 c7.53 0.11 8.98 0 9.37 -0.72 0.67 -1.12 3.79 -1.12 3.79 0 0 0.61 0.61 0.84 2.23 0.84 2.01 0 2.23 0.17 2.23 1.39 0 1.06 -0.28 1.39 -1.17 1.39 -0.89 0 -1.06 0.22 -0.78 1 0.22 0.50 0.56 1.62 0.67 2.45 0.28 1.45 1.39 2.12 3.85 2.12 1.28 0 1.90 0.95 1.90 2.84 0 1.06 -0.89 1.06 -38.36 1.06 -21.13 0 -38.58 -0.17 -38.75 -0.39z"/>
  <path d="M490.83 255.37 c0 -1.67 0.11 -2.40 0.22 -1.51 0.11 0.84 0.11 2.17 0 3.07 -0.11 0.84 -0.22 0.11 -0.22 -1.56z"/>
  <path d="M340.56 251.63 c0.67 -0.11 1.67 -0.11 2.23 0 0.50 0.17 -0.06 0.28 -1.28 0.22 -1.23 0 -1.67 -0.11 -0.95 -0.22z"/>
  <path d="M492.78 251.63 c1 -0.11 2.51 -0.11 3.35 0 0.84 0.11 0 0.22 -1.84 0.22 -1.84 0 -2.51 -0.11 -1.51 -0.22z"/>
  <path d="M317.81 242.32 c0 -0.11 0.84 -0.33 1.90 -0.45 1.06 -0.11 1.78 0 1.67 0.22 -0.28 0.45 -3.57 0.67 -3.57 0.22z"/>
  <path d="M490.83 219.40 c0 -2.12 0.11 -2.96 0.22 -1.78 0.11 1.12 0.11 2.90 0 3.90 -0.11 0.95 -0.22 0.06 -0.22 -2.12z"/>
  <path d="M332.48 214.27 c0.84 -0.11 2.17 -0.11 3.07 0 0.84 0.11 0.11 0.22 -1.56 0.22 -1.67 0 -2.40 -0.11 -1.51 -0.22z"/>
  <path d="M363.98 185.84 c1.28 -0.11 3.29 -0.11 4.46 0 1.12 0.11 0.06 0.22 -2.40 0.22 -2.45 0 -3.40 -0.11 -2.06 -0.22z"/>
  <path d="M171.95 171.06 l-1.62 -1.84 1.84 1.62 c1.67 1.56 2.06 2.01 1.62 2.01 -0.11 0 -0.89 -0.84 -1.84 -1.78z"/>
  <path d="M155 153.61 c-1.34 -1.39 -2.34 -2.51 -2.17 -2.51 0.17 0 1.39 1.12 2.73 2.51 1.34 1.39 2.34 2.51 2.17 2.51 -0.17 0 -1.39 -1.12 -2.73 -2.51z"/>
  <path d="M151.10 126.29 c1.67 -1.67 3.18 -3.07 3.29 -3.07 0.17 0 -1.06 1.39 -2.73 3.07 -1.67 1.67 -3.18 3.07 -3.29 3.07 -0.17 0 1.06 -1.39 2.73 -3.07z"/>
  <path d="M169.22 107.61 c1.17 -1.23 2.29 -2.23 2.45 -2.23 0.17 0 -0.72 1 -1.90 2.23 -1.17 1.23 -2.29 2.23 -2.45 2.23 -0.17 0 0.72 -1 1.90 -2.23z"/>
  <path d="M238.30 97.46 l-1.62 -1.84 1.84 1.62 c1.67 1.56 2.06 2.01 1.62 2.01 -0.11 0 -0.89 -0.84 -1.84 -1.78z"/>
  <path d="M187.62 88.65 c1.17 -1.23 2.29 -2.23 2.45 -2.23 0.17 0 -0.72 1 -1.90 2.23 -1.17 1.23 -2.29 2.23 -2.45 2.23 -0.17 0 0.72 -1 1.90 -2.23z"/>
  <path d="M354.17 88.10 c0 -1.06 0.11 -1.51 0.28 -0.95 0.11 0.50 0.11 1.39 0 1.95 -0.17 0.50 -0.28 0.06 -0.28 -1z"/>
  <path d="M354.22 60.77 c0 -1.39 0.11 -1.95 0.22 -1.23 0.11 0.67 0.11 1.78 0 2.51 -0.11 0.67 -0.22 0.11 -0.22 -1.28z"/>
 </g>
 <g fill="#70a5fc">
  <path d="M273.88 421.13 c3.90 -0.11 10.43 -0.11 14.50 0 4.07 0.06 0.89 0.17 -7.08 0.17 -7.97 0 -11.32 -0.11 -7.42 -0.17z"/>
  <path d="M303.76 421.13 c1.62 -0.11 4.13 -0.11 5.58 0 1.45 0.11 0.11 0.17 -2.96 0.17 -3.07 0 -4.24 -0.06 -2.62 -0.17z"/>
  <path d="M348.59 416.50 c0 -1.06 0.11 -1.51 0.28 -0.95 0.11 0.50 0.11 1.39 0 1.95 -0.17 0.50 -0.28 0.06 -0.28 -1z"/>
  <path d="M262.22 415.39 c0 -1.39 0.11 -1.95 0.22 -1.23 0.11 0.67 0.11 1.78 0 2.51 -0.11 0.67 -0.22 0.11 -0.22 -1.28z"/>
  <path d="M348.31 412.60 c-0.22 -1.06 -0.45 -2.29 -0.50 -2.62 -0.06 -0.50 -0.28 -0.56 -0.84 -0.11 -0.56 0.50 -0.72 0.39 -0.72 -0.56 0 -0.61 -0.28 -1.17 -0.56 -1.17 -0.33 0 -0.84 -0.61 -1.23 -1.39 -0.33 -0.72 -0.84 -1.23 -1.06 -1.06 -0.28 0.17 -0.45 -0.28 -0.33 -1 0.06 -0.84 -0.17 -1.23 -0.67 -1.12 -0.67 0.17 -0.67 0.06 0 -0.78 0.45 -0.56 0.50 -0.84 0.17 -0.61 -0.33 0.17 -1 -0.39 -1.56 -1.34 -0.50 -0.89 -1.28 -1.62 -1.62 -1.62 -0.39 0 -0.33 0.22 0.17 0.56 0.72 0.45 0.67 0.56 -0.22 0.56 -0.72 0 -0.95 -0.28 -0.72 -1.12 0.17 -0.72 0 -1.12 -0.56 -1.12 -0.45 0 -0.61 -0.22 -0.45 -0.56 0.17 -0.28 0.06 -0.56 -0.28 -0.56 -0.33 0 -0.45 -0.28 -0.22 -0.67 0.28 -0.45 0 -0.39 -0.61 0.11 -0.61 0.50 -0.89 0.56 -0.61 0.17 0.22 -0.39 0.17 -0.72 -0.11 -0.72 -0.28 0 -0.95 -1 -1.51 -2.23 -1.39 -3.12 -2.68 -4.46 -4.24 -4.46 -1.06 0 -1.17 -0.11 -0.50 -0.56 0.67 -0.45 0.61 -0.56 -0.45 -0.56 -0.67 0 -1.39 -0.39 -1.56 -0.84 -0.22 -0.45 -0.56 -0.67 -0.84 -0.50 -0.28 0.17 -0.50 -0.22 -0.50 -0.84 0 -0.67 -0.28 -1.17 -0.61 -1.17 -0.33 0 -0.45 -0.39 -0.28 -0.84 0.17 -0.50 -0.06 -1 -0.50 -1.17 -0.45 -0.22 -0.67 -0.56 -0.50 -0.84 0.22 -0.45 -1.84 -0.78 -3.23 -0.56 -0.45 0.06 -0.67 -0.84 -0.50 -1.73 0 -0.28 -0.33 -0.45 -0.84 -0.45 -0.45 0 -0.67 -0.22 -0.50 -0.56 0.17 -0.28 0.06 -0.56 -0.33 -0.56 -0.33 0 -0.50 -0.45 -0.33 -1.12 0.17 -0.61 0.06 -1.12 -0.22 -1.12 -0.28 0 -0.50 0.33 -0.50 0.72 0 0.45 -0.17 0.39 -0.50 -0.17 -0.33 -0.45 -0.39 -1 -0.28 -1.23 0.17 -0.22 -0.06 -0.45 -0.50 -0.45 -0.45 0 -0.95 -0.39 -1.17 -0.84 -0.17 -0.45 -0.67 -0.67 -1.17 -0.50 -0.45 0.22 -0.95 -0.06 -1.17 -0.56 -0.17 -0.50 -0.56 -0.72 -0.84 -0.56 -0.72 0.39 -0.61 -0.56 0.11 -1.28 0.45 -0.45 0.39 -0.95 -0.17 -1.78 -0.84 -1.34 -1.67 -1.56 -1.23 -0.33 0.22 0.45 0.56 0.84 0.84 0.84 0.28 0 0.50 0.22 0.50 0.56 0 1.06 -1.67 -0.17 -2.01 -1.45 -0.33 -1.28 -2.84 -3.40 -3.74 -3.12 -0.28 0.06 -0.33 -0.11 -0.17 -0.33 0.33 -0.56 -1.45 -2.90 -2.17 -2.90 -0.22 0 -0.89 -0.61 -1.51 -1.39 -0.61 -0.78 -1.34 -1.28 -1.62 -1.06 -0.28 0.17 -0.50 0.11 -0.45 -0.17 0.22 -1.17 -0.11 -1.84 -0.89 -1.84 -0.45 0 -0.84 -0.22 -0.84 -0.56 0 -0.28 -0.39 -0.56 -0.84 -0.56 -0.45 0 -0.78 -0.17 -0.78 -0.39 0.17 -1.17 -0.17 -1.84 -0.95 -1.84 -0.45 0 -0.67 -0.22 -0.50 -0.56 0.17 -0.28 -0.06 -0.56 -0.50 -0.56 -0.50 0 -0.89 -0.28 -0.89 -0.56 0 -1.06 -4.35 -5.02 -5.52 -5.02 -0.78 0 -1.06 -0.28 -0.84 -0.84 0.33 -0.78 -0.95 -2.51 -1.84 -2.51 -0.22 0 -0.95 -0.78 -1.56 -1.67 -1.12 -1.67 -1.95 -2.17 -1.95 -1.06 0 0.28 -0.28 0.39 -0.56 0.22 -0.45 -0.28 -0.39 -0.61 0.06 -1.17 0.50 -0.61 0.45 -0.78 -0.28 -0.78 -0.56 0 -0.78 -0.22 -0.61 -0.56 0.17 -0.28 0.06 -0.56 -0.28 -0.56 -0.33 0 -0.50 -0.22 -0.33 -0.50 0.17 -0.28 -0.06 -0.61 -0.50 -0.84 -0.45 -0.17 -0.84 -0.67 -0.84 -1.17 0 -0.50 -0.50 -0.84 -1.45 -0.84 -0.78 0 -1.28 -0.22 -1.06 -0.56 0.22 -0.33 -0.33 -0.56 -1.23 -0.61 -1.28 0 -1.39 -0.11 -0.50 -0.45 1 -0.39 1 -0.45 -0.22 -1.62 -0.72 -0.67 -1.67 -1.23 -2.06 -1.23 -0.45 0 -0.61 -0.28 -0.39 -0.61 0.39 -0.67 -2.96 -3.85 -4.13 -3.85 -0.39 0 -0.61 -0.22 -0.45 -0.50 0.17 -0.28 -0.17 -0.61 -0.78 -0.78 -0.61 -0.17 -1.12 -0.67 -1.12 -1.17 0 -0.50 -0.33 -0.89 -0.78 -0.89 -0.45 0 -0.72 -0.39 -0.67 -0.89 0 -0.50 -0.33 -1.06 -0.78 -1.17 -0.72 -0.22 -0.72 -0.17 0 0.33 0.72 0.50 0.67 0.61 -0.22 0.61 -0.72 0 -0.95 -0.28 -0.72 -1.06 0.28 -1.17 -1.84 -2.68 -2.90 -2.06 -0.33 0.22 -0.61 0.17 -0.61 -0.17 0 -0.28 0.33 -0.67 0.72 -0.78 0.33 -0.17 0 -0.33 -0.84 -0.33 -1.23 -0.06 -1.39 -0.28 -1.12 -1.28 0.17 -0.78 0.06 -1.06 -0.33 -0.78 -0.39 0.22 -0.56 0.11 -0.39 -0.39 0.17 -0.39 -0.17 -1.17 -0.72 -1.73 -1 -0.84 -1.17 -0.84 -1.95 -0.11 -0.67 0.67 -0.89 0.72 -1.12 0.11 -0.17 -0.39 -0.11 -1 0.11 -1.39 0.61 -0.89 -2.17 -3.79 -3.29 -3.46 -0.45 0.11 -0.67 0 -0.45 -0.22 0.50 -0.56 -1.78 -2.29 -2.62 -2.06 -0.28 0.11 -0.39 0.06 -0.17 -0.17 0.22 -0.22 -0.17 -1 -0.84 -1.73 -0.67 -0.67 -1.56 -1.67 -1.95 -2.17 -0.39 -0.45 -1.06 -0.67 -1.39 -0.50 -0.39 0.22 -0.50 0.22 -0.28 -0.06 0.56 -0.61 -1.23 -1.90 -2.62 -1.95 -0.95 0 -0.95 -0.11 -0.28 -0.56 0.72 -0.50 0.72 -0.56 0 -0.56 -0.50 0 -1.17 0.28 -1.45 0.56 -0.39 0.39 -0.61 0.33 -0.61 -0.22 0 -0.45 0.17 -0.84 0.33 -0.78 1.06 0.11 0.95 -0.28 -0.28 -1.51 -0.78 -0.78 -1.62 -1.39 -1.95 -1.39 -0.33 0 -0.39 -0.22 -0.22 -0.56 0.17 -0.28 -0.06 -0.56 -0.56 -0.56 -0.50 0 -0.72 -0.22 -0.56 -0.56 0.33 -0.56 -0.28 -0.72 -1.95 -0.61 -0.50 0 -0.56 -0.11 -0.17 -0.28 1.06 -0.45 0.17 -1.90 -1.17 -1.90 -0.95 0 -1 -0.11 -0.33 -0.56 0.72 -0.45 0.67 -0.56 -0.17 -0.56 -0.56 0 -0.84 -0.22 -0.67 -0.56 0.17 -0.28 0.11 -0.56 -0.17 -0.56 -0.28 0 -1.17 -0.95 -1.95 -2.06 -0.84 -1.17 -1.51 -1.90 -1.51 -1.62 0 0.28 -0.72 -0.28 -1.67 -1.23 -0.89 -1 -1.67 -1.51 -1.67 -1.23 0 0.28 -0.72 -0.22 -1.62 -1.12 -0.84 -0.95 -1.90 -1.67 -2.23 -1.67 -0.39 0 -0.50 -0.22 -0.33 -0.56 0.17 -0.28 0.06 -0.56 -0.28 -0.56 -0.33 0 -0.45 -0.22 -0.28 -0.56 0.17 -0.28 0 -0.56 -0.45 -0.56 -1.23 0 -1.51 -1.28 -0.61 -2.51 0.45 -0.56 0.78 -0.78 0.78 -0.39 0 0.33 0.39 0.50 0.89 0.28 0.72 -0.28 0.56 -0.56 -0.84 -1.23 -1.45 -0.78 -1.62 -1.06 -1.06 -1.67 0.61 -0.61 0.56 -0.72 -0.11 -0.50 -0.45 0.17 -1.28 0.06 -1.90 -0.22 -0.72 -0.39 -0.89 -0.39 -0.67 0.06 0.22 0.33 0.11 0.61 -0.17 0.61 -0.33 0 -0.61 -0.33 -0.61 -0.67 0 -0.50 -0.22 -0.45 -0.56 0.11 -0.39 0.61 -0.56 0.61 -0.56 0.11 0 -0.39 -0.22 -0.56 -0.56 -0.39 -0.28 0.17 -0.56 0.11 -0.56 -0.22 0 -0.33 -1.78 -0.67 -4.01 -0.78 -2.23 -0.06 12.38 -0.28 32.56 -0.39 20.13 -0.17 36.46 -0.11 36.35 0.06 -0.11 0.22 0.17 0.67 0.61 1.06 0.45 0.39 0.67 0.95 0.45 1.34 -0.17 0.33 -0.17 0.45 0.11 0.22 0.22 -0.22 1.95 0.67 3.85 1.95 1.84 1.23 5.30 3.12 7.58 4.13 2.29 1 3.85 1.84 3.46 1.84 -0.39 0 -1.23 -0.28 -1.84 -0.56 -0.56 -0.33 -1.06 -0.39 -1.06 -0.11 0 0.28 1.17 0.89 2.68 1.39 1.90 0.67 2.17 0.89 0.84 0.67 -1.28 -0.17 -1.84 0 -2.12 0.72 -0.17 0.50 -0.17 0.72 0.06 0.56 0.17 -0.22 0.67 -0.11 1.12 0.28 1.39 1.23 2.23 1.78 3.01 1.95 0.45 0.11 1 0.45 1.17 0.78 0.22 0.33 0.50 0.28 0.67 -0.17 0.17 -0.45 0.33 -0.22 0.33 0.50 0.06 0.72 0.39 1.23 0.95 1.23 0.45 0 0.67 -0.22 0.50 -0.56 -0.50 -0.84 0.22 -0.67 1.17 0.22 1.06 1.06 1 1.51 -0.17 1.12 -0.61 -0.22 -0.78 -0.17 -0.39 0.17 0.33 0.22 0.89 0.95 1.28 1.56 0.50 0.78 0.61 0.84 0.39 0.17 -0.17 -0.56 0 -1.12 0.33 -1.34 0.33 -0.22 0.45 -0.17 0.28 0.17 -0.39 0.61 1.84 2.01 2.73 1.78 0.95 -0.28 3.07 0.67 2.96 1.34 -0.22 1.90 0.11 2.56 1.17 2.34 0.61 -0.11 1.12 0.06 1.12 0.33 0 0.84 1.45 2.17 1.90 1.78 0.28 -0.28 0.45 1.06 0.28 2.40 0 0.17 0.50 0.78 1.12 1.28 0.61 0.56 0.95 1.23 0.72 1.45 -0.22 0.28 -0.06 0.28 0.33 0.06 0.39 -0.22 0.84 -0.06 1 0.39 0.17 0.50 0.72 0.72 1.34 0.56 0.67 -0.17 1.23 0.17 1.62 0.89 0.50 0.89 0.50 1.17 -0.06 1.23 -0.39 0 -0.17 0.22 0.56 0.50 1.23 0.56 1.73 1.67 0.61 1.67 -1.17 0 0.17 1.06 3.12 2.56 2.17 1 3.07 1.78 3.07 2.56 0 0.56 0.22 0.95 0.45 0.78 0.39 -0.22 0.67 0.78 0.84 3.29 0.06 0.61 0.67 1.73 1.45 2.51 1.23 1.23 1.34 1.23 1.06 0.22 -0.22 -0.78 0 -1.12 0.72 -1.12 0.56 0 0.89 0.17 0.72 0.39 -0.11 0.22 0.22 0.56 0.72 0.67 0.78 0.22 0.78 0.28 -0.17 0.33 -1.34 0.06 -2.34 1.73 -1.06 1.73 0.39 0 0.95 -0.22 1.12 -0.56 0.61 -1.06 1.51 -0.56 1.23 0.61 -0.22 0.95 -0.17 1.06 0.33 0.56 0.33 -0.33 0.89 -0.61 1.23 -0.61 0.28 0.06 -0.06 0.50 -0.72 1.12 -0.72 0.61 -1.23 1.39 -1.12 1.78 0.17 0.45 0.61 0.28 1.39 -0.50 1 -1 1.23 -1.06 1.51 -0.33 0.45 1.17 0.39 1.39 -0.22 1 -0.33 -0.17 -0.39 0.06 -0.17 0.56 0.22 0.61 0.45 0.72 0.72 0.33 0.22 -0.45 1.06 0 2.40 1.23 1.84 1.78 1.90 1.95 1.06 2.84 -0.84 0.84 -0.84 0.89 0.06 0.89 1.12 0 1.06 1.23 -0.11 1.73 -0.61 0.22 -0.61 0.45 0.11 1.17 0.50 0.50 0.72 1 0.56 1.23 -0.22 0.17 -0.06 0.33 0.33 0.33 1 0 2.29 1.45 2.29 2.62 0 0.78 0.11 0.84 0.50 0.22 0.39 -0.61 0.50 -0.61 0.78 0 0.22 0.56 0.33 0.56 0.33 0.11 0.06 -0.39 0.45 -0.72 0.95 -0.72 0.78 0 0.78 0.11 -0.06 0.89 -0.84 0.84 -0.78 1 0.39 1.78 2.23 1.56 2.73 2.23 1.95 2.51 -0.45 0.22 -0.45 0.33 0.11 0.33 0.45 0.06 1.28 -0.33 1.84 -0.89 0.95 -0.84 1 -0.84 1 0.33 0 0.67 -0.22 1.06 -0.56 0.89 -0.28 -0.17 -0.56 -0.11 -0.56 0.11 0 0.61 2.29 2.01 2.68 1.62 0.17 -0.17 0 -0.33 -0.33 -0.33 -0.39 0 -0.67 -0.39 -0.67 -0.84 0 -0.45 0.39 -0.84 0.89 -0.84 0.45 0 0.72 0.22 0.56 0.50 -0.22 0.28 -0.06 0.61 0.28 0.72 0.45 0.17 0.33 0.50 -0.28 1.12 -1.23 1.28 -1.12 2.12 0.28 1.84 0.84 -0.17 1.06 0 0.84 0.56 -0.17 0.50 0.06 0.84 0.56 0.84 0.45 0 0.67 0.28 0.50 0.56 -0.17 0.33 0.06 0.56 0.50 0.56 0.50 0 0.89 0.50 0.89 1.12 0 1.34 0.95 1.45 2.34 0.17 0.56 -0.50 1 -0.61 1 -0.33 0 0.33 -0.39 0.72 -0.84 0.95 -1 0.33 -1.12 1.78 -0.17 2.34 0.33 0.22 0.45 0.17 0.28 -0.17 -0.22 -0.33 0.11 -0.72 0.78 -0.89 0.89 -0.22 1 -0.17 0.50 0.45 -0.50 0.56 -0.28 1.28 0.89 3.01 0.84 1.28 1.78 2.29 2.23 2.29 0.39 0 1.51 0.84 2.51 1.84 1 0.95 1.62 1.39 1.34 0.95 -0.33 -0.61 -0.17 -0.56 0.67 0.17 0.61 0.50 1.34 0.78 1.56 0.56 0.28 -0.28 0.22 -0.06 -0.17 0.50 -0.50 0.61 -0.56 1 -0.11 1.28 0.28 0.17 0.56 0.06 0.56 -0.28 0 -0.33 0.28 -0.45 0.56 -0.28 0.33 0.22 0.45 0.56 0.28 0.84 -0.17 0.28 0.17 0.61 0.67 0.84 0.56 0.17 1.45 0.95 2.01 1.73 0.95 1.23 0.72 1.17 -1.45 -0.50 -5.80 -4.40 -12.77 -4.13 -17.67 0.84 -3.57 3.57 -3.57 3.62 -3.90 26.93 -0.17 11.88 -0.45 20.35 -0.72 19.24z m-11.10 -85.31 c-0.72 -1.17 -1.56 -1.51 -1.56 -0.56 0 0.28 0.45 0.78 1 1.06 1.28 0.78 1.34 0.78 0.56 -0.50z"/>
  <path d="M212.43 395.15 c0 -0.11 0.84 -0.89 1.84 -1.84 l1.78 -1.62 -1.62 1.84 c-1.56 1.67 -2.01 2.06 -2.01 1.62z"/>
  <path d="M262.28 388.62 c0 -3.85 0.06 -5.41 0.17 -3.46 0.11 1.90 0.11 5.02 0 6.97 -0.11 1.90 -0.17 0.33 -0.17 -3.51z"/>
  <path d="M194.03 383.88 c-1.34 -1.39 -2.34 -2.51 -2.17 -2.51 0.17 0 1.39 1.12 2.73 2.51 1.34 1.39 2.34 2.51 2.17 2.51 -0.17 0 -1.39 -1.12 -2.73 -2.51z"/>
  <path d="M226.65 380.26 c1.17 -1.23 2.29 -2.23 2.45 -2.23 0.17 0 -0.72 1 -1.90 2.23 -1.17 1.23 -2.29 2.23 -2.45 2.23 -0.17 0 0.72 -1 1.90 -2.23z"/>
  <path d="M262.22 378.03 c0 -2.01 0.11 -2.79 0.22 -1.78 0.11 0.95 0.11 2.62 0 3.62 -0.11 0.95 -0.22 0.17 -0.22 -1.84z"/>
  <path d="M381.88 376.86 c-2.23 -2.40 -4.18 -4.74 -4.29 -5.13 -0.17 -0.61 1.51 1.06 6.69 6.80 1.17 1.28 2.12 2.51 2.01 2.62 -0.11 0.11 -2.12 -1.84 -4.40 -4.29z"/>
  <path d="M236.41 377.75 c1.06 -1.06 2.01 -1.95 2.17 -1.95 0.17 0 -0.56 0.89 -1.62 1.95 -1.06 1.06 -2.01 1.95 -2.17 1.95 -0.17 0 0.56 -0.89 1.62 -1.95z"/>
  <path d="M177.31 366.60 c-1.34 -1.39 -2.34 -2.51 -2.17 -2.51 0.17 0 1.39 1.12 2.73 2.51 1.34 1.39 2.34 2.51 2.17 2.51 -0.17 0 -1.39 -1.12 -2.73 -2.51z"/>
  <path d="M248.84 362.59 c0.50 -0.11 1.39 -0.11 1.95 0 0.50 0.17 0.06 0.28 -1 0.28 -1.06 0 -1.51 -0.11 -0.95 -0.28z"/>
  <path d="M360.35 354.78 c0.22 -0.33 0.11 -0.72 -0.28 -0.84 -0.39 -0.17 -0.45 -0.39 -0.11 -0.61 0.28 -0.17 0.89 -0.11 1.23 0.11 0.56 0.33 0.50 0.61 -0.22 1.23 -0.56 0.45 -0.84 0.50 -0.61 0.11z"/>
  <path d="M158.91 347.53 l-3.62 -3.79 3.79 3.62 c2.06 1.95 3.74 3.68 3.74 3.74 0 0.45 -0.56 -0.11 -3.90 -3.57z"/>
  <path d="M357.73 347.64 c-0.17 -0.50 0 -0.84 0.45 -0.84 0.45 0 0.89 0.39 1.12 0.84 0.17 0.50 0 0.84 -0.45 0.84 -0.45 0 -0.89 -0.39 -1.12 -0.84z"/>
  <path d="M342.35 335.54 c0 -1.23 1.45 -1.34 1.90 -0.17 0.17 0.45 0.06 0.84 -0.22 0.84 -0.33 0 -0.56 -0.33 -0.56 -0.67 0 -0.50 -0.22 -0.45 -0.56 0.11 -0.45 0.72 -0.56 0.67 -0.56 -0.11z"/>
  <path d="M158.07 325.62 c3.07 -3.07 5.69 -5.58 5.85 -5.58 0.11 0 -2.23 2.51 -5.30 5.58 -3.07 3.07 -5.69 5.58 -5.85 5.58 -0.11 0 2.23 -2.51 5.30 -5.58z"/>
  <path d="M339.56 329.80 c-0.56 -0.67 -0.56 -0.84 0.22 -0.84 0.50 0 0.89 0.39 0.89 0.84 0 0.45 -0.11 0.84 -0.22 0.84 -0.11 0 -0.50 -0.39 -0.89 -0.84z"/>
  <path d="M167.83 308.06 c1.06 -1.06 2.01 -1.95 2.17 -1.95 0.17 0 -0.56 0.89 -1.62 1.95 -1.06 1.06 -2.01 1.95 -2.17 1.95 -0.17 0 0.56 -0.89 1.62 -1.95z"/>
  <path d="M298.46 281.74 c0.50 -0.11 1.39 -0.11 1.95 0 0.50 0.17 0.06 0.28 -1 0.28 -1.06 0 -1.51 -0.11 -0.95 -0.28z"/>
  <path d="M294.12 281.01 c-1.39 -0.61 0.06 -0.61 1.95 0 1.12 0.33 1.17 0.45 0.28 0.45 -0.61 0 -1.62 -0.17 -2.23 -0.45z"/>
  <path d="M126.73 272.93 c0 -1.84 0.11 -2.51 0.22 -1.51 0.11 1 0.11 2.51 0 3.35 -0.11 0.84 -0.22 0 -0.22 -1.84z"/>
  <path d="M96.07 269.47 c0.84 -0.11 2.17 -0.11 3.07 0 0.84 0.11 0.11 0.22 -1.56 0.22 -1.67 0 -2.40 -0.11 -1.51 -0.22z"/>
  <path d="M102.20 269.47 c0.84 -0.11 2.17 -0.11 3.07 0 0.84 0.11 0.11 0.22 -1.56 0.22 -1.67 0 -2.40 -0.11 -1.51 -0.22z"/>
  <path d="M496.68 269.47 c0.67 -0.11 1.78 -0.11 2.51 0 0.67 0.11 0.11 0.22 -1.28 0.22 -1.39 0 -1.95 -0.11 -1.23 -0.22z"/>
  <path d="M502.53 269.47 c1.12 -0.11 3.01 -0.11 4.18 0 1.12 0.11 0.17 0.22 -2.12 0.22 -2.29 0 -3.23 -0.11 -2.06 -0.22z"/>
  <path d="M97.74 264.45 c0.84 -0.11 2.06 -0.11 2.79 0 0.67 0.11 0 0.22 -1.56 0.22 -1.51 0 -2.12 -0.11 -1.23 -0.22z"/>
  <path d="M111.68 264.45 c1.45 -0.11 3.79 -0.11 5.30 0 1.45 0.11 0.22 0.17 -2.68 0.17 -2.90 0 -4.13 -0.06 -2.62 -0.17z"/>
  <path d="M277.28 264.45 c0.84 -0.11 2.06 -0.11 2.79 0 0.67 0.11 0 0.22 -1.56 0.22 -1.51 0 -2.12 -0.11 -1.23 -0.22z"/>
  <path d="M315.19 264.45 c0.50 -0.11 1.39 -0.11 1.95 0 0.50 0.17 0.06 0.28 -1 0.28 -1.06 0 -1.51 -0.11 -0.95 -0.28z"/>
  <path d="M498.07 264.45 c2.34 -0.11 6.24 -0.11 8.64 0 2.34 0.06 0.39 0.17 -4.35 0.17 -4.74 0 -6.69 -0.11 -4.29 -0.17z"/>
  <path d="M199.61 263.73 c1.67 -0.22 2.56 -0.45 1.95 -0.50 -0.95 -0.06 -1 -0.17 -0.28 -0.67 0.72 -0.50 0.72 -0.56 -0.11 -0.28 -0.50 0.11 -1.95 -0.11 -3.12 -0.61 -1.95 -0.72 -2.23 -1.06 -2.12 -2.45 0.11 -1.17 -0.11 -1.56 -0.61 -1.39 -0.39 0.17 -0.72 0.06 -0.72 -0.17 0 -0.28 0.33 -0.67 0.72 -0.78 0.39 -0.22 0.33 -0.33 -0.28 -0.33 -0.61 -0.06 -0.84 -0.39 -0.61 -1.17 0.17 -0.61 0 -1.45 -0.33 -1.84 -0.33 -0.45 -0.45 -0.89 -0.28 -1.12 0.17 -0.17 -0.22 -0.17 -0.84 0 -0.84 0.22 -1 0.50 -0.67 0.95 0.39 0.45 0.22 0.67 -0.45 0.67 -0.67 0 -0.95 -0.28 -0.72 -0.84 0.17 -0.45 0.06 -0.67 -0.22 -0.45 -0.33 0.17 -0.89 0.11 -1.34 -0.22 -0.67 -0.39 -0.56 -0.50 0.45 -0.50 1.17 0 1.23 -0.17 1.23 -4.96 l0 -5.02 -2.06 -0.17 -2.12 -0.17 0 -3.35 0 -3.35 3.74 -0.17 3.74 -0.17 1.73 3.35 c0.89 1.84 1.67 3.51 1.67 3.68 0 0.17 -0.61 0.28 -1.39 0.28 -1.39 0 -1.39 0.06 -1.39 5.02 l0 5.02 9.20 0 9.20 0 0 -5.02 0 -5.02 -2.06 -0.06 c-2.12 0 -2.12 -0.06 -4.68 -5.13 l-2.56 -5.19 1.84 -2.12 c6.13 -7.08 3.85 -19.01 -4.52 -23.64 -1.39 -0.78 -3.85 -1 -15.17 -1.12 l-13.55 -0.17 0 5.02 0 5.07 2.23 0 2.23 0 0 13.60 0 13.66 -2.06 0.17 -2.12 0.17 -0.33 3.90 -0.28 3.90 -0.11 -3.62 c-0.11 -4.13 0.39 -5.02 2.84 -5.02 l1.56 0 -0.11 -3.57 c-0.11 -2.90 -0.28 -3.51 -1 -3.40 -0.50 0.06 -1.23 -0.28 -1.62 -0.78 -0.45 -0.50 -0.61 -0.61 -0.45 -0.22 0.39 0.72 -0.22 1.23 -1.90 1.56 -0.61 0.11 -1 0 -0.84 -0.33 0.22 -0.28 -0.06 -0.50 -0.56 -0.50 -0.45 0 -1 -0.33 -1.17 -0.78 -0.17 -0.45 -0.67 -0.67 -1.12 -0.50 -0.45 0.17 -1.17 -0.39 -1.73 -1.45 -1.06 -1.84 -1.78 -2.12 -2.90 -1 -0.39 0.33 -0.61 0.45 -0.56 0.11 0.33 -1.17 -0.61 -4.18 -1.34 -4.18 -0.61 0 -0.84 0.89 -0.89 3.18 0 1.73 -0.28 3.40 -0.50 3.62 -0.28 0.28 -2.45 0.39 -4.91 0.28 l-4.40 -0.17 4.63 -0.11 4.57 -0.11 0.06 -5.13 c0 -3.40 0.17 -4.80 0.50 -4.07 0.39 0.95 0.50 1 0.50 0.11 0.06 -0.89 -2.34 -2.40 -3.40 -2.17 -0.22 0.06 -0.28 -0.28 -0.06 -0.78 0.17 -0.45 0.67 -0.72 1.06 -0.56 0.56 0.22 0.78 -0.17 0.78 -1.34 0 -1.73 -0.95 -2.17 -2.06 -1.06 -0.39 0.39 -0.67 0.22 -0.89 -0.61 -0.28 -1.12 -0.17 -1.23 1.34 -0.89 1.23 0.22 1.62 0.11 1.62 -0.50 0 -0.61 -0.45 -0.78 -1.56 -0.56 -0.84 0.11 -2.29 0 -3.18 -0.22 -1.39 -0.45 -1.12 -0.50 1.84 -0.56 l3.46 -0.06 0 2.23 0 2.23 4.74 0 4.74 0 0 -7.25 0 -7.25 -14.33 -0.11 c-7.92 -0.06 -13.33 -0.17 -11.99 -0.28 1.34 -0.17 2.34 -0.50 2.34 -0.89 0 -0.78 -2.29 -2.96 -2.90 -2.73 -0.22 0.06 -0.28 -0.28 -0.11 -0.67 0.17 -0.50 -0.28 -1.06 -1.28 -1.56 -0.95 -0.45 -1.56 -1.17 -1.56 -1.84 0 -0.72 -0.33 -1.06 -0.84 -0.95 -0.45 0.11 -0.61 0 -0.39 -0.28 0.28 -0.22 0.78 -0.45 1.12 -0.45 0.39 0 0.61 -0.61 0.56 -1.28 l-0.17 -1.23 16.06 0 c9.03 0 16.89 -0.28 18.01 -0.56 2.79 -0.78 6.86 -4.52 8.03 -7.36 1.23 -3.18 1.28 -7.47 0 -9.92 -0.56 -1.06 -2.62 -3.79 -4.68 -6.02 -4.46 -4.96 -6.69 -8.08 -3.35 -4.57 1.34 1.39 2.68 2.45 2.96 2.34 0.67 -0.22 2.06 1.06 1.67 1.62 -0.17 0.28 0.06 0.50 0.45 0.56 0.39 0 1.56 1.78 2.62 3.90 1.39 2.79 2.06 3.68 2.40 3.18 0.39 -0.50 0.45 -0.28 0.22 0.67 -0.33 1.56 0.22 2.79 1.39 3.01 1.62 0.22 4.35 2.51 10.59 8.81 3.57 3.62 6.41 6.58 6.24 6.58 -0.11 0 0.56 0.67 1.62 1.56 2.73 2.23 4.46 4.01 3.96 4.01 -0.22 0 -0.06 0.28 0.39 0.56 0.56 0.33 0.61 0.56 0.17 0.56 -0.39 0 -0.72 0.39 -0.72 0.84 0 0.45 0.28 0.84 0.61 0.84 0.33 0 0.17 0.45 -0.39 0.95 -0.84 0.89 -0.84 0.95 0.11 1.34 0.61 0.22 0.78 0.45 0.45 0.45 -0.95 0.06 -1.39 2.40 -0.67 3.23 0.72 0.89 2.17 -0.11 1.78 -1.23 -0.45 -1.06 0.78 -1.62 1.78 -0.78 0.67 0.56 0.67 0.78 0.11 1.12 -0.56 0.39 -0.56 0.50 0.11 0.50 0.72 0 0.72 0.06 0 0.56 -0.56 0.33 -0.61 0.56 -0.11 0.56 1 0 0.84 0.72 -0.56 2.23 l-1.23 1.28 1.51 -0.28 c0.84 -0.17 1.67 -0.06 1.90 0.28 0.17 0.33 0.06 0.39 -0.28 0.17 -0.39 -0.22 -0.67 -0.17 -0.67 0.11 0 0.89 2.84 1.17 3.18 0.28 0.28 -0.61 0.39 -0.61 0.95 0.06 0.33 0.45 1.51 0.89 2.56 1 l1.95 0.17 0.17 13.49 0.11 13.49 -2.06 0.17 -2.12 0.17 -0.17 3.62 c-0.33 6.52 -0.95 6.13 9.65 6.13 l9.20 0 0 -5.02 0 -5.02 -2.23 0 -2.23 0 0.06 -9.31 c0.06 -5.19 0.17 -8.92 0.33 -8.42 0.11 0.50 0.56 0.84 0.89 0.67 0.39 -0.11 1.17 0.39 1.73 1.17 0.56 0.78 1.34 1.39 1.67 1.39 0.45 0 0.39 -0.17 -0.06 -0.45 -0.45 -0.28 -0.39 -0.67 0.22 -1.51 0.72 -0.89 0.84 -0.95 0.56 -0.11 -0.22 0.50 -0.11 0.95 0.22 0.95 0.33 0 0.33 0.39 -0.06 1.12 -0.45 0.78 -0.45 1.12 0 1.12 0.33 0 0.50 0.22 0.28 0.50 -0.17 0.28 0.17 0.67 0.67 0.84 0.56 0.17 1.28 0.95 1.67 1.73 0.45 1.06 0.45 1.28 0 1 -0.61 -0.33 -0.17 0.33 1.84 2.73 0.61 0.78 1.62 1 4.52 1 2.62 0 3.90 0.22 4.40 0.84 0.39 0.45 0.89 0.67 1.17 0.50 0.28 -0.17 0.33 0.11 0.17 0.56 -0.17 0.50 -0.11 0.89 0.11 0.89 0.28 0 1.12 0.50 1.90 1.12 1.34 1.06 1.34 1.06 0.17 0.72 -0.72 -0.17 -2.01 -1.17 -2.96 -2.17 -1.62 -1.90 -1.67 -1.90 -6.69 -1.90 l-5.02 0 0 7.53 0 7.53 5.02 0 c4.24 0 5.02 -0.17 5.02 -0.89 0 -0.67 0.28 -0.78 1 -0.50 2.51 1.12 6.80 1.95 9.76 1.95 3.12 0 3.23 0.06 2.29 1 -0.89 0.89 -0.89 0.95 -0.06 1.12 0.50 0.11 0.95 0.45 0.95 0.72 0 0.33 0.89 1.39 1.95 2.40 2.29 2.17 2.34 2.12 0.84 -0.78 -0.61 -1.23 -1.12 -2.40 -1.12 -2.62 0 -0.22 1 1.39 2.17 3.57 1.17 2.23 2.45 4.40 2.79 4.85 0.50 0.61 0.28 0.84 -1.17 1.06 -1 0.17 -17.62 0.28 -36.97 0.28 -19.29 -0.06 -33.73 -0.22 -32.06 -0.45z"/>
  <path d="M126.85 243.10 c0 -11.49 0.06 -16.23 0.11 -10.43 0.11 5.74 0.11 15.11 0 20.91 -0.06 5.74 -0.11 1 -0.11 -10.48z"/>
  <path d="M490.83 259.83 c0 -2.01 0.11 -2.79 0.22 -1.78 0.11 0.95 0.11 2.62 0 3.62 -0.11 0.95 -0.22 0.17 -0.22 -1.84z"/>
  <path d="M281.18 251.63 c1.73 -0.11 4.63 -0.11 6.41 0 1.73 0.11 0.28 0.17 -3.23 0.17 -3.51 0 -4.96 -0.06 -3.18 -0.17z"/>
  <path d="M323.56 251.63 c3.29 -0.11 8.64 -0.11 11.99 0 3.29 0.06 0.56 0.17 -6.02 0.17 -6.58 0 -9.31 -0.11 -5.97 -0.17z"/>
  <path d="M342.79 251.63 c0.67 -0.11 1.67 -0.11 2.23 0 0.50 0.17 -0.06 0.28 -1.28 0.22 -1.23 0 -1.67 -0.11 -0.95 -0.22z"/>
  <path d="M496.68 251.63 c0.67 -0.11 1.78 -0.11 2.51 0 0.67 0.11 0.11 0.22 -1.28 0.22 -1.39 0 -1.95 -0.11 -1.23 -0.22z"/>
  <path d="M508.67 251.63 c2.06 -0.11 5.41 -0.11 7.53 0 2.06 0.11 0.33 0.17 -3.79 0.17 -4.13 0 -5.85 -0.06 -3.74 -0.17z"/>
  <path d="M136.77 246.44 c0 -2.29 0.11 -3.23 0.22 -2.06 0.11 1.12 0.11 3.01 0 4.18 -0.11 1.12 -0.22 0.17 -0.22 -2.12z"/>
  <path d="M335.82 242.15 c0.84 -0.11 2.06 -0.11 2.79 0 0.67 0.11 0 0.22 -1.56 0.22 -1.51 0 -2.12 -0.11 -1.23 -0.22z"/>
  <path d="M261.72 241.20 c-0.17 -0.39 -0.22 -1.95 -0.11 -3.46 l0.17 -2.73 0.28 3.51 c0.28 3.51 0.22 4.07 -0.33 2.68z"/>
  <path d="M159.69 238.64 c0.06 -1.39 0.11 -1.39 4.96 -1.45 l4.85 0 -4.68 0.17 c-4.35 0.17 -4.74 0.28 -4.96 1.45 -0.17 1 -0.22 1 -0.17 -0.17z"/>
  <path d="M330.80 236.69 c0 -1.51 0.11 -2.12 0.22 -1.23 0.11 0.84 0.11 2.06 0 2.79 -0.11 0.67 -0.22 0 -0.22 -1.56z"/>
  <path d="M321.38 222.19 c0 -2.73 0.06 -3.96 0.17 -2.68 0.11 1.28 0.11 3.57 0 5.02 -0.11 1.45 -0.17 0.45 -0.17 -2.34z"/>
  <path d="M187.34 219.96 l0 -5.30 4.46 0 c4.07 0 4.63 0.17 5.85 1.39 1.06 1 1.39 1.95 1.39 3.74 -0.06 4.13 -2.01 5.46 -8.14 5.46 l-3.57 0 0 -5.30z"/>
  <path d="M151.27 218.84 c0 -2.45 0.11 -3.40 0.22 -2.06 0.11 1.28 0.11 3.29 0 4.46 -0.11 1.12 -0.22 0.06 -0.22 -2.40z"/>
  <path d="M132.92 209.64 c0 -2.90 0.06 -4.13 0.17 -2.62 0.11 1.45 0.11 3.79 0 5.30 -0.11 1.45 -0.17 0.22 -0.17 -2.68z"/>
  <path d="M136.83 209.64 c0 -2.90 0.06 -4.13 0.17 -2.62 0.11 1.45 0.11 3.79 0 5.30 -0.11 1.45 -0.17 0.22 -0.17 -2.68z"/>
  <path d="M522.61 207.69 c0 -1.23 0.11 -1.67 0.22 -0.95 0.11 0.67 0.11 1.67 0 2.23 -0.17 0.50 -0.28 -0.06 -0.22 -1.28z"/>
  <path d="M349.15 207.41 c0 -1.06 0.11 -1.51 0.28 -0.95 0.11 0.50 0.11 1.39 0 1.95 -0.17 0.50 -0.28 0.06 -0.28 -1z"/>
  <path d="M126.73 202.12 c0 -1.51 0.11 -2.12 0.22 -1.23 0.11 0.84 0.11 2.06 0 2.79 -0.11 0.67 -0.22 0 -0.22 -1.56z"/>
  <path d="M490.83 200.17 c0 -1.39 0.11 -1.95 0.22 -1.23 0.11 0.67 0.11 1.78 0 2.51 -0.11 0.67 -0.22 0.11 -0.22 -1.28z"/>
  <path d="M127.40 195.54 c0.17 -0.56 0.28 -1.12 0.28 -1.28 0 -0.33 3.29 -1.90 4.01 -1.84 0.39 0 -0.17 0.39 -1.28 0.84 -1.12 0.45 -2.34 1.39 -2.68 2.06 -0.39 0.78 -0.56 0.84 -0.33 0.22z"/>
  <path d="M320.21 191.97 c0.50 -0.11 1.39 -0.11 1.95 0 0.50 0.17 0.06 0.28 -1 0.28 -1.06 0 -1.51 -0.11 -0.95 -0.28z"/>
  <path d="M369.83 185.84 c0.84 -0.11 2.06 -0.11 2.79 0 0.67 0.11 0 0.22 -1.56 0.22 -1.51 0 -2.12 -0.11 -1.23 -0.22z"/>
  <path d="M403.57 185.84 c1 -0.11 2.51 -0.11 3.35 0 0.84 0.11 0 0.22 -1.84 0.22 -1.84 0 -2.51 -0.11 -1.51 -0.22z"/>
  <path d="M165.26 156.06 c-1.17 -1.28 -1.28 -1.62 -0.50 -1.17 1.39 0.72 3.46 2.90 2.68 2.90 -0.28 0 -1.23 -0.78 -2.17 -1.73z"/>
 </g>
</svg>